<svg id="Layer_1" data-name="Layer 1" xmlns="http://www.w3.org/2000/svg" viewBox="0 0 2802 338"><defs><style>.cls-1{fill:none;}.cls-2{fill:#080909;}.cls-3{fill:#0e1010;}.cls-4{fill:#63aefd;}.cls-5{fill:#f8f8f8;}.cls-6{fill:#f4f4f4;}.cls-7{fill:#fdfdfd;}.cls-8{fill:#fdcbc4;}.cls-9{fill:#090705;}.cls-10{fill:#e89d22;}.cls-11{fill:#984e00;}.cls-12{fill:#040304;}.cls-13{fill:#0e0e0e;}.cls-14{fill:#65adf9;}</style></defs><title>mario-3-art</title><path class="cls-1" d="M2471.86,315.79c0-.81,0-1.63,0-2.44,0,0.81,0,1.63,0,2.44h0Z"/><path class="cls-1" d="M2473.65,316c-0.59,0-1.2-.16-1.8-0.22h0C2472.45,315.85,2473.06,316,2473.65,316Z"/><path class="cls-1" d="M390.74,144.7h0q0-.39,0-0.75Q390.71,144.31,390.74,144.7Z"/><path class="cls-1" d="M2341.89,110.14a1.75,1.75,0,0,0-.73-0.59A1.75,1.75,0,0,1,2341.89,110.14Z"/><path class="cls-1" d="M2346.08,116c-1.12,0-2.25,0-3.37-.06h0C2343.84,116,2345,116,2346.08,116Z"/><path class="cls-1" d="M2339.32,109.28c-1.06,0-2.46.18-4.34,0.41-0.68-.06-1.38-0.16-2.07-0.25,0.69,0.09,1.39.19,2.07,0.25C2336.86,109.46,2338.26,109.3,2339.32,109.28Z"/><path class="cls-1" d="M216.29,211.8c-0.72-3.17-.17-4.55,2.4-5.69-2.57,1.14-3.12,2.52-2.4,5.69l-0.5.51,0.5-.51a1.08,1.08,0,0,1,.63.64h0A1.08,1.08,0,0,0,216.29,211.8Z"/><path class="cls-1" d="M0,0V338H102q0-14-.06-28.09c0-3.06.89-4.37,3.95-3.91,3.29,0.5,4-1.26,3.75-4.08-0.15-1.65.1-3.34-.05-5-0.28-3,.51-4.88,4-4.27,2.89,0.5,3.79-.88,3.62-3.66-0.19-3.15.05-6.33-.07-9.49-0.15-4-.63-7.93,5.51-6.91,1.78,0.3,2.14-1.13,2.12-2.62,0-1.83.13-3.67,0-5.49-0.3-3.44.14-6,4.61-5.19,2.48,0.44,3.18-1,3-3.24-0.12-1.66.14-3.35-.05-5-0.42-3.67.5-5.83,4.77-5.1,2.09,0.36,3.2-.66,2.87-2.83-0.48-3.18,1-4.14,4-3.86,1.55,0.15,3.83.47,3.57-2.1-0.39-3.93,1.31-5.06,4.87-4.52,2.2,0.33,3.11-.8,2.81-2.88-0.48-3.27,1.13-4.06,4-3.82,1.34,0.11,3.61.57,3.44-1.65-0.34-4.28,1.41-5.64,5.41-5,1.72,0.27,2.5-.79,2.28-2.4-0.52-3.75,1.42-4.62,4.65-4.23,2,0.24,3.31-.49,3-2.76-0.42-3.08.86-4.34,3.9-3.9,2.75,0.4,4.14-.64,3.72-3.56s1.28-3.4,3.6-3.1c2.86,0.37,4.52-.39,4-3.71-0.39-2.58,1.2-3.05,3.35-3,2.49,0.09,5-.13,7.49.06,3,0.23,4.85-.46,4.36-4-0.31-2.28,1.12-2.73,3.09-2.73,4.15,0,8.29-.18,12.44-0.28v0h0c-0.77-3.68-1.37-7.22,4.42-6.4,2.19,0.31,3.08-.78,2.79-2.87-0.45-3.24,1.21-4,4.08-3.8,2.15,0.17,4.33-.12,6.48.07,3.17,0.28,5.21-.36,4.68-4.19-0.27-2,.91-2.59,2.74-2.54,2.49,0.08,5-.13,7.48.05,3.26,0.24,5.62-.15,5-4.37-0.37-2.6,1.64-2.35,3.31-2.34,5.15,0,10.31-.08,15.46,0,2.46,0.05,4.38-.14,4-3.35s1.53-3.42,4-3.36c5,0.11,10-.06,15,0.07,2.54,0.07,4.32-.29,3.86-3.43s1.63-3.32,4-3.31q14.72,0.09,29.43,0c1.67,0,3.75.91,4.88-1.33a6,6,0,0,1,.07-3.94c0.74-2.44,2.77-1.29,4.17-1.31,11.1-.13,22.2-0.11,33.3-0.14-0.65-5.36,1.54-6.72,7-6.69q76.9,0.38,153.81,0c5.44,0,7.64,1.32,7,6.69,11.07,0,22.15,0,33.22.14,1.42,0,3.4-1.08,4.25,1.23-0.38,4.9,2.13,5.72,6.55,5.54,9.1-.38,18.22-0.06,27.33-0.13,2.76,0,5.08,0,4.52,3.83-0.39,2.62,1.25,2.93,3.35,2.89,4-.09,8,0.38,11.92-0.12,5.51-.71,8.5.79,8,6.8,6.33,0,12.66-.1,19,0,1.1,0,2.85-.86,3.07,1.37-0.57,4.83,2.07,5.84,6.18,5.33,1.63-.2,3.31.08,5-0.06,2.92-.25,4.92.29,4.41,3.91-0.31,2.18.89,2.92,2.95,2.81,1.81-.1,3.64,0,5.46,0,6.61,0,6.61,0,6.89,6.47,2.26,1.12,5.36-1.62,7.17,1.56-0.55,4.8,2.05,5.86,6.18,5.33,1.63-.21,3.31.09,5,0,2.89-.24,4.94.25,4.43,3.89-0.31,2.17.88,2.92,2.94,2.81,1.81-.1,3.63,0,5.45,0,6.63,0,6.63,0,6.88,6.46,2.26,1.15,5.37-1.61,7.18,1.58,0,3.39.62,6.15,5.16,5.34,2.65-.47,2.85,1.41,2.77,3.42-0.06,1.47-.18,3.51,2,3.11,6-1.11,5.79,2.83,5.88,6.69,2.29,0.75,5.22-1.57,7,1.44-0.05,3.52.7,6.17,5.22,5.33,1.82-.34,2.93.64,2.63,2.58-0.53,3.43,1,4.51,4.2,4.06,2.59-.37,3.65.74,3.46,3.36a14.54,14.54,0,0,0,.55,3.39c2.25,0.46,5-1.73,6.76,1.29,0,3.33.47,6.2,5.06,5.32,2.11-.4,2.86.84,2.85,2.9,0,3.44.15,6.88,0.24,10.31,2.27,0.91,5.26-1.68,7.07,1.46,0.09,1.82.32,3.65,0.24,5.46-0.18,3.85-.48,7.55,5.36,6.56,2.1-.36,2.29,1.34,2.28,3,0,4.5.09,9,0,13.49-0.08,2.47.56,3.91,3.31,3.47,3.6-.58,4.79,1.07,4.36,4.47-0.17,1.31.1,2.68-.05,4-0.41,3.41.35,5.57,4.45,4.9,2.81-.46,3.22,1.22,3.21,3.59q0,14.19,0,28.38h257a5,5,0,0,0,.13-1.34c0-1.83.12-3.68,0-5.5-0.28-3.41.08-6,4.6-5.25,2.48,0.43,3.21-1,3.05-3.24-0.12-1.66.13-3.35-.05-5-0.41-3.64.47-5.83,4.75-5.09,2.17,0.37,3.12-.8,2.84-2.89-0.44-3.27,1.23-4.15,4.09-3.75s3.84-.95,3.6-3.7c-0.18-2,.11-4-0.07-6-0.26-2.87.9-4,3.72-3.65,2.52,0.31,4.36-.25,3.93-3.4-0.38-2.73,1-3.67,3.48-3.25,3.88,0.66,4.49-1.43,4.15-4.59-0.16-1.48.1-3-.05-4.49-0.33-3.12.59-4.82,4.09-4.28,2.41,0.37,3.95-.48,3.53-3.25-0.47-3.17,1.36-3.71,3.87-3.39,2.74,0.35,4.13-.61,3.73-3.54s1.32-3.47,3.63-3.12c3.51,0.52,4.34-1.21,4-4.29-0.17-1.65.11-3.34-.06-5-0.29-2.88.51-4.52,3.77-4.07,2.56,0.35,4.31-.32,3.87-3.42-0.39-2.73,1-3.4,3.46-3.32,1.53,0,4.29,1.11,4-2-0.32-3.88,1.19-5.14,4.84-4.62,2.15,0.31,3.16-.8,2.85-2.92-0.48-3.3,1.21-4.11,4.06-3.73,2.43,0.32,3.93-.41,3.54-3.2-0.42-3,1.17-3.8,3.81-3.48s4.29-.28,3.83-3.41c-0.41-2.79,1.17-3.53,3.57-3.23,2.92,0.36,4.49-.61,4-3.82-0.37-2.65,1.24-3,3.36-2.89s4.34-.06,6.5,0c3.21,0.16,6.12.29,5.41-4.47-0.39-2.64,1.89-2.3,3.44-2.18,2.84,0.22,4.53-.47,4.1-3.76-0.33-2.55,1.2-3,3.37-3,2.83,0.11,5.67-.06,8.5.05,2.21,0.08,3.68-.51,3.31-3-0.49-3.36,1.27-4,4.08-3.68,2.37,0.31,4-.3,3.53-3.15s1.09-3.77,3.77-3.55c2,0.16,4,0,6,0,3.17,0.16,6.08.39,5.53-4.39-0.33-2.94,2.26-2.29,3.94-2.23,2.36,0.08,4-.36,3.58-3.22-0.46-3.06,1.18-3.61,3.8-3.53,5,0.14,10-.09,15,0.09,2.88,0.1,4.52-.56,4-3.81-0.39-2.63,1.19-3,3.32-2.93s4.33-.05,6.5,0c3.15,0.13,6.23.42,5.43-4.4-0.29-1.71.95-2.28,2.5-2.26,2.33,0,4.67-.12,7,0,3.43,0.22,6.41.3,5.73-4.67-0.3-2.2,1.68-2,3.17-2,5.17,0,10.33-.11,15.49,0,2.76,0.08,4.63-.3,4.09-3.7-0.4-2.52,1-3.09,3.23-3.05,5.16,0.1,10.33-.09,15.49.08,2.83,0.09,4.57-.44,4.09-3.77-0.37-2.6,1.24-3,3.37-2.95q34.74,0.06,69.48,0c2.3,0,3.53.71,3.2,3.13-0.41,3,1.08,3.67,3.76,3.59,5.16-.15,10.33,0,15.49-0.08,2.37-.05,4,0.4,3.56,3.23-0.46,3,1.05,3.61,3.73,3.52,5.16-.17,10.33,0,15.49-0.08,2.36,0,4,.36,3.61,3.22-0.43,3,1.12,3.74,3.79,3.52,2-.16,4,0,6,0,3.18-.15,6.15-0.33,5.48,4.45-0.36,2.62,1.87,2.2,3.45,2.21,5.17,0,10.33.12,15.5,0,2.63-.08,4.25.49,3.81,3.53-0.41,2.81,1.12,3.4,3.54,3.22,2-.15,4,0.06,6,0,3.38-.19,6.49-0.39,5.74,4.67-0.33,2.24,1.69,2.13,3.14,2,3-.27,4.91.36,4.42,4-0.3,2.25,1,2.83,3.06,2.74,2.16-.1,4.34.1,6.5,0,3.46-.24,6.41-0.23,5.7,4.7-0.34,2.33,1.67,2.07,3.1,2,2.81-.18,5,0.06,4.45,3.84-0.34,2.16.84,3,2.94,2.87s4.34,0.07,6.5,0c3.33-.17,6.49-0.43,5.83,4.6-0.29,2.22,1.64,2.15,3.13,2,2.86-.21,5,0.17,4.4,3.9-0.37,2.24.93,2.89,3,2.81s4.33,0,6.5,0c3.2-.09,6.56-0.63,5.8,4.53-0.31,2.14,1.54,2.26,3.09,2.13,2.89-.24,5,0.21,4.46,3.91-0.46,3.3,2,2.82,3.93,2.73,2.3-.1,4.06.23,3.66,3.15s0.92,3.92,3.7,3.57c2.47-.31,4.37.15,3.9,3.36-0.41,2.74,1,3.42,3.51,3.36,1.47,0,4.07-.82,3.91,1.67-0.27,4.36,1.53,5.56,5.47,5,2.22-.34,2.48,1.26,2.28,2.86-0.4,3.2,1.12,4.2,4,3.79s3.92,0.89,3.63,3.7c-0.17,1.65.11,3.34-.06,5-0.33,3.16.32,5.25,4.16,4.64,2.49-.39,3.87.57,3.49,3.28-0.43,3.11,1.31,3.72,3.87,3.38,2.71-.35,4.15.57,3.73,3.55-0.34,2.41.86,3.47,3.17,3.1,4.11-.66,4.86,1.54,4.44,4.93-0.12,1,.08,2,0,3-0.43,3.63.06,6.31,4.79,5.45,2.18-.4,3.07.79,2.82,2.89-0.32,2.71.63,4.21,3.58,3.75,3.47-.54,4.43,1.17,4.06,4.29-0.15,1.32.11,2.68-.05,4-0.46,3.65.48,5.8,4.73,5.08,2.11-.36,3.19.72,2.9,2.86-0.43,3.21,1.11,4.21,4,3.78s3.84,1,3.6,3.71c-0.17,2,.12,4-0.07,6-0.28,2.89.93,4,3.71,3.61,3.59-.55,4.29,1.38,3.95,4.38-0.13,1.15.09,2.34,0,3.49a7.62,7.62,0,0,0,.35,4.2H1970c0-3.88,0-7.77-.12-11.65-0.07-2.73.69-4.16,3.62-3.75s4.44-.61,4-3.81,1.86-2.87,3.9-2.87q20.25,0,40.5,0,77.75,0,155.49,0c3.15,0,6.19.4,5.47-4.43-0.39-2.63,1.84-2.41,3.41-2.23,3.38,0.41,4.52-1,4.14-4.25-0.17-1.48.1-3-.06-4.49-0.33-3.18.35-5.28,4.2-4.64,3.05,0.51,3.72-1.17,3.47-3.78-0.13-1.32.09-2.68,0-4-0.38-3.62.06-6.36,4.82-5.58,2.22,0.36,2.91-1,2.81-3-0.08-1.66.16-3.35,0-5-0.49-3.85.42-6.14,4.94-5.34,1.82,0.32,2.94-.49,2.67-2.49-0.44-3.32,1-4.61,4.24-4.14,2.58,0.38,3.66-.77,3.44-3.4-0.16-1.82.15-3.69-.07-5.49-0.42-3.44.8-5,4.37-4.46,2.75,0.41,3.47-1.08,3.28-3.54-0.14-1.82.12-3.68-.06-5.49-0.3-3.1.57-4.87,4.08-4.28,2.89,0.49,3.86-.86,3.61-3.64-0.18-2,.11-4-0.07-6-0.25-2.83.84-4,3.69-3.69,2.49,0.3,4.38-.21,3.94-3.38-0.38-2.7.94-3.7,3.45-3.27,3.87,0.66,4.51-1.42,4.17-4.59-0.16-1.48.1-3-.05-4.49-0.33-3.13.64-4.82,4.12-4.27,3,0.47,3.8-1.07,3.57-3.77-0.16-1.82.1-3.68-.06-5.49-0.26-2.82.38-4.58,3.73-4.09,2.54,0.37,4.31-.28,3.9-3.4-0.37-2.78,1.15-3.58,3.57-3.22,3.43,0.51,4.43-1.11,4.07-4.27-0.19-1.65.09-3.34-.06-5-0.26-2.79.32-4.64,3.7-4.11,3.55,0.55,4.25-1.42,3.95-4.41-0.15-1.48.14-3-.06-4.49-0.46-3.45.8-5,4.35-4.42,2.75,0.45,3.51-1,3.29-3.45-0.14-1.65.13-3.35-.06-5-0.39-3.45.45-5.54,4.5-4.9,2.35,0.38,3.36-.75,3.18-3.13-0.12-1.66.1-3.34,0-5-0.31-3.43.12-6,4.6-5.23,2.47,0.41,3.18-1,3-3.28-0.11-1.66.15-3.35-.05-5-0.46-3.75.64-5.76,4.82-5,2.17,0.37,3.13-.71,2.82-2.84-0.47-3.17,1-4.19,4-3.83,2.32,0.28,4-.3,3.63-3.18-0.43-3,1.21-3.54,3.82-3.5,7.66,0.13,15.33.08,23,0,2.22,0,4.12.07,3.72,3.06s1,3.93,3.73,3.62c2.51-.29,4.36.23,3.87,3.39-0.41,2.71.9,3.68,3.41,3.27,3.8-.61,4.58,1.38,4.23,4.61-0.16,1.48.11,3-.06,4.49-0.37,3.19.76,4.75,4.13,4.23,3-.46,3.75,1.11,3.52,3.78-0.16,1.82.1,3.68-.06,5.49-0.26,2.86.5,4.58,3.78,4.08,3.11-.48,4.24.94,3.91,4-0.16,1.48.1,3-.05,4.49-0.34,3.31.19,5.65,4.38,4.89,2.76-.5,3.46,1,3.26,3.48-0.14,1.82.13,3.68-.06,5.49-0.32,3.1.6,4.84,4,4.33,2.89-.42,3.89.9,3.62,3.69-0.18,1.82.14,3.68-.07,5.49-0.38,3.27.85,4.67,4.16,4.18,2.53-.38,3.83.63,3.49,3.3s1,3.69,3.48,3.33c3.29-.47,4.54.89,4.15,4.17-0.22,1.81.1,3.67-.07,5.49-0.26,2.8.79,4.15,3.65,3.68,3.6-.59,4.32,1.33,4,4.35-0.13,1.32.12,2.68,0,4-0.47,3.68.55,5.76,4.76,5,2.15-.38,3.11.7,2.86,2.84-0.31,2.66.52,4.27,3.52,3.8,3.45-.54,4.47,1.12,4.1,4.27-0.15,1.32.1,2.68,0,4-0.4,3.56.35,5.86,4.69,5.1,2.08-.37,3.08.64,3,2.82-0.1,2,.16,4-0.06,6-0.38,3.43.8,5,4.38,4.49,2.77-.42,3.47,1.06,3.27,3.52-0.13,1.66.14,3.35-.06,5-0.43,3.52.53,5.49,4.53,4.85,2.41-.39,3.4.87,3.12,3.18-0.3,2.51.58,3.88,3.28,3.43,3.56-.58,4.84.94,4.35,4.4-0.19,1.31.09,2.67-.05,4-0.36,3.33.24,5.65,4.41,5,2.82-.45,3.38,1.22,3.23,3.6-0.11,1.83.13,3.68-.06,5.49-0.32,3.13.62,4.79,4.07,4.22,2.92-.48,3.87.94,3.62,3.7-0.16,1.82.1,3.67-.06,5.49-0.24,2.8.38,4.64,3.72,4.12,3.06-.48,4.35.76,3.91,3.87-0.32,2.24.95,2.93,3,2.82,1.33-.07,2.67,0,4,0q96.5,0,193,0c3.25,0,6-.21,5.42,4.49-0.33,2.52,1.92,2.38,3.52,2.17,3.54-.45,4.14,1.32,4.05,4.37q-0.17,5.53-.13,11.07h102V0H0Z"/><path class="cls-1" d="M2331.4,109.27a5.18,5.18,0,0,0-2.46.32A5.18,5.18,0,0,1,2331.4,109.27Z"/><path class="cls-1" d="M527.84,324.48q0,6.76,0,13.52h0Q527.84,331.24,527.84,324.48Z"/><path class="cls-1" d="M2678.65,322.71l-9,.34c-0.93-.05-1.85-0.12-2.78-0.19,0.93,0.06,1.85.14,2.78,0.19Z"/><path class="cls-1" d="M170.06,252.67h0Z"/><path class="cls-1" d="M173.73,252.7c-0.83,0-1.67,0-2.5,0C172.06,252.68,172.89,252.68,173.73,252.7Z"/><path class="cls-1" d="M209.38,213.25c-0.77.7-.65,2.27-0.4,5.4-0.49.08-1,.21-1.47,0.27,0.49-.06,1-0.19,1.47-0.27C208.73,215.52,208.61,214,209.38,213.25Z"/><path class="cls-1" d="M225.22,185.93a11.88,11.88,0,0,1-1.21-.25h0A11.82,11.82,0,0,0,225.22,185.93Z"/><path class="cls-1" d="M216,216.58c0,1.31-.18,2.12-0.73,2.56C215.78,218.7,216,217.9,216,216.58Z"/><path class="cls-2" d="M390.7,144a7,7,0,0,1,.19-1.85,3.44,3.44,0,0,1,.64-1.33,3,3,0,0,1,.69-0.62,7.79,7.79,0,0,1,4.24-.84q66.54,0.29,133.08,0c4.3,0,6.51.94,6.22,5.47,4.74,0.52,9.7-1.58,14.25,1.17a5,5,0,0,1,.55,1.89c-0.7,4.58,1.79,5,5.54,5,9.33-.22,18.66,0,28-0.11,2.88,0,5,.23,4.54,3.92-0.35,2.69,1.43,2.84,3.47,2.83,7.5-.05,15,0.05,22.49-0.06,2.83,0,5,.12,4.48,3.88-0.4,2.69,1.42,2.88,3.45,2.86,5.17,0,10.33.08,15.5,0,2.61-.06,4.24.51,3.86,3.55s1.48,3.16,3.73,3.13c5.16-.07,10.33.06,15.5-0.05,2.44-.05,3.94.58,3.58,3.32-0.42,3.17,1.4,3.57,3.92,3.42,2.16-.13,4.34.09,6.5-0.05,3-.19,5.4,0,4.83,4.06-0.34,2.37,1.25,2.7,3.12,2.67,2.33,0,4.67.1,7,0,3.14-.19,5.74,0,5.1,4.29-0.25,1.69.86,2.35,2.45,2.34,2.33,0,4.67.11,7,0,3.38-.18,6.39-0.37,5.81,4.66-0.29,2.53,2.13,2.1,3.67,2,2.6-.14,4.28.43,3.84,3.51-0.4,2.84,1.24,3.37,3.59,3.24,1.83-.1,3.67,0,5.5,0,3.35-.1,6.82-0.75,6.24,4.72-0.26,2.47,2.27,1.73,3.79,1.91s3.64-.46,3.5,1.68c-0.27,4.25,1.44,5.67,5.46,5.06,1.75-.27,2.45.85,2.26,2.42-0.39,3.22.8,4.7,4.16,4.24,2.46-.34,3.88.56,3.51,3.3s1.07,3.61,3.53,3.3c2.93-.36,4.43.65,4.07,3.84s1.91,2.82,3.95,2.89c1.52,0,3.85-.62,3.57,2.07-0.41,3.87,1.2,5.12,4.82,4.62,2.16-.3,3.11.84,2.86,2.94-0.34,2.83.83,4.07,3.67,3.65,3.07-.45,4.28.86,3.95,3.92-0.16,1.48.1,3-.05,4.49-0.33,3.31.22,5.65,4.41,5,2.74-.43,3.46,1.09,3.28,3.55-0.13,1.82.15,3.68-.06,5.49-0.38,3.23.77,4.74,4.12,4.26,3.06-.44,3.62,1.26,3.53,3.86-0.14,4,.08,8-0.07,12-0.11,2.76.37,4.7,3.73,4.13,3.59-.6,4.22,1.36,4,4.33-0.15,1.65.11,3.34-.06,5-0.31,3,.75,4.45,3.89,4s3.81,1.29,3.8,4.12q0,10.57-.05,21.13H832q0-14.19,0-28.38c0-2.38-.4-4.05-3.21-3.59-4.1.67-4.86-1.49-4.45-4.9,0.16-1.31-.11-2.68.05-4,0.43-3.4-.76-5-4.36-4.47-2.75.44-3.39-1-3.31-3.47,0.14-4.49,0-9,0-13.49,0-1.63-.18-3.33-2.28-3-5.84,1-5.54-2.71-5.36-6.56,0.09-1.81-.15-3.64-0.24-5.46-2.34-.55-5.19,1.34-7.07-1.46-0.09-3.44-.26-6.88-0.24-10.31,0-2.06-.74-3.3-2.85-2.9-4.59.87-5-2-5.06-5.32-2.24-.51-4.89,1.14-6.76-1.29a14.54,14.54,0,0,1-.55-3.39c0.19-2.62-.87-3.73-3.46-3.36-3.15.45-4.74-.63-4.2-4.06,0.3-1.94-.81-2.92-2.63-2.58-4.51.84-5.27-1.81-5.22-5.33-2.33-.55-5.16,1.32-7-1.44-0.09-3.86.09-7.8-5.88-6.69-2.17.4-2.05-1.64-2-3.11,0.08-2-.12-3.9-2.77-3.42-4.54.81-5.11-1.95-5.16-5.34-2.38-.6-5.34,1.47-7.18-1.58-0.25-6.46-.25-6.45-6.88-6.46-1.82,0-3.64-.08-5.45,0-2.06.11-3.25-.64-2.94-2.81,0.51-3.64-1.54-4.13-4.43-3.89-1.64.13-3.33-.16-5,0-4.13.53-6.73-.53-6.18-5.33-2.37-.59-5.32,1.45-7.17-1.56-0.28-6.47-.28-6.47-6.89-6.47-1.82,0-3.64-.08-5.46,0-2.06.11-3.25-.63-2.95-2.81,0.51-3.62-1.5-4.16-4.41-3.91-1.64.14-3.33-.14-5,0.06-4.11.51-6.75-.49-6.18-5.33-5.9,0-11.81,0-17.71,0-1.52,0-3.38.72-4.35-1.3,0.54-6-2.45-7.51-8-6.8-3.91.5-7.94,0-11.92,0.12-2.1,0-3.74-.27-3.35-2.89,0.56-3.8-1.76-3.85-4.52-3.83-9.11.08-18.24-.25-27.33,0.13-4.42.18-6.93-.64-6.55-5.54q-16.83.06-33.67,0.12c-1.44,0-3.07.37-3.8-1.48,0.66-5.37-1.54-6.71-7-6.69q-76.9.38-153.81,0c-5.44,0-7.64,1.33-7,6.69-0.88,2.08-2.75,1.47-4.3,1.47-11.06,0-22.12,0-33.18,0a6,6,0,0,0-.07,3.94l45.16,0.1Q390.71,144.31,390.7,144Z"/><path class="cls-2" d="M109.62,317c0-3.2.79-4.76,4.16-4.24,3.07,0.47,3.71-1.23,3.49-3.83-0.12-1.49.1-3,0-4.49-0.32-3.3.23-5.66,4.41-5,2.78,0.44,3.33-1.16,3.26-3.57-0.13-4.33.08-8.66-.08-13-0.09-2.55.72-3.82,3.37-3.41,3.66,0.57,4.73-1.2,4.33-4.54-0.18-1.48.11-3-.06-4.49-0.35-3.16.73-4.78,4.11-4.29,3,0.44,3.74-1.15,3.52-3.8-0.15-1.82.1-3.67-.06-5.49-0.26-2.88.58-4.52,3.82-4.09,2.62,0.35,4.24-.47,3.86-3.49-0.3-2.37.77-3.37,3.15-3.13,2.81,0.29,5-.07,4.45-3.85-0.4-2.66,1.43-2.85,3.47-2.88,1.37,0,3.89.62,3.79-1.18-0.28-4.82,1.88-6.06,6.13-5.55a1.58,1.58,0,0,0,1.74-1.93c-0.47-3.79,1.15-5.17,4.82-4.63,2.18,0.32,3.07-.85,2.82-2.93-0.33-2.73.65-4.14,3.58-3.74s4.52-.5,4.08-3.76c-0.35-2.59,1.22-3,3.36-3,1.48,0,4.11.84,4-1.55-0.2-4.34,1.59-5.54,5.52-5.08,2.13,0.25,2.47-1.36,2.25-3-0.47-3.41,1.41-3.86,4.15-3.69,2.32,0.15,4.67-.1,7,0.06,2.81,0.2,4.55-.43,4.13-3.75-0.17-1.35.05-3.18,1.84-2.84,6.57,1.26,5.75-3.35,6-7.18-4.15.1-8.29,0.27-12.44,0.28-2,0-3.4.45-3.09,2.73,0.48,3.55-1.33,4.24-4.36,4-2.48-.19-5,0-7.49-0.06-2.15-.08-3.74.39-3.35,3,0.5,3.32-1.17,4.08-4,3.71-2.31-.3-4,0.2-3.6,3.1s-1,4-3.72,3.56c-3-.44-4.32.82-3.9,3.9,0.31,2.27-1,3-3,2.76-3.23-.39-5.17.48-4.65,4.23,0.22,1.6-.56,2.67-2.28,2.4-4-.63-5.74.74-5.41,5,0.17,2.23-2.1,1.76-3.44,1.65-2.9-.23-4.51.56-4,3.82,0.31,2.08-.61,3.22-2.81,2.88-3.56-.54-5.27.59-4.87,4.52,0.26,2.57-2,2.25-3.57,2.1-3-.28-4.44.68-4,3.86,0.33,2.17-.78,3.19-2.87,2.83-4.27-.73-5.2,1.43-4.77,5.1,0.19,1.64-.07,3.33.05,5,0.16,2.25-.54,3.67-3,3.24-4.47-.79-4.92,1.75-4.61,5.19,0.16,1.82,0,3.66,0,5.49,0,1.49-.34,2.92-2.12,2.62-6.14-1-5.66,3-5.51,6.91,0.12,3.16-.12,6.33.07,9.49,0.17,2.78-.73,4.16-3.62,3.66-3.54-.61-4.33,1.22-4,4.27,0.15,1.65-.1,3.34.05,5,0.25,2.82-.46,4.58-3.75,4.08-3.05-.46-4,0.85-3.95,3.91Q102,324,102,338h7.71Q109.68,327.49,109.62,317Z"/><path class="cls-3" d="M233.92,186.11c3.26,0.29,5.67-.15,5.07-4.36-0.25-1.75.91-2.28,2.47-2.27,2.33,0,4.67-.1,7,0,3.38,0.17,6.52.36,5.78-4.67-0.26-1.8,1.3-2,2.72-2,2.67,0,5.34-.14,8,0,2.93,0.18,4.9-.3,4.47-3.95-0.32-2.75,1.73-2.71,3.65-2.7,5,0,10-.11,15,0,2.81,0.09,4.57-.45,4.1-3.77-0.37-2.58,1.18-3,3.33-3,5.16,0.08,10.33,0,15.5,0,2.45,0,4.41-.18,4-3.39s1.63-3.37,4-3.35c7.5,0.07,15,0,22.5,0,2.12,0,4.24.11,3.89-2.94-0.39-3.36,1.47-3.75,4.22-3.73q18.25,0.15,36.49,0c1.55,0,3.74,1.16,4.63-1.4l-45.16-.1c-1.13,2.24-3.21,1.31-4.88,1.33q-14.71.12-29.43,0c-2.38,0-4.48,0-4,3.31s-1.33,3.49-3.86,3.43c-5-.13-10,0-15-0.07-2.47-.05-4.41.19-4,3.36s-1.51,3.4-4,3.35c-5.15-.11-10.31,0-15.46,0-1.67,0-3.68-.26-3.31,2.34,0.6,4.22-1.77,4.6-5,4.37-2.48-.18-5,0-7.48-0.05-1.83-.05-3,0.58-2.74,2.54,0.53,3.83-1.5,4.47-4.68,4.19-2.14-.19-4.33.1-6.48-0.07-2.87-.23-4.52.56-4.08,3.8,0.29,2.09-.6,3.18-2.79,2.87-5.79-.82-5.19,2.72-4.42,6.4a11.88,11.88,0,0,0,1.21.25C228.1,186.38,231,185.85,233.92,186.11Z"/><path class="cls-3" d="M224,185.68h0Z"/><path class="cls-3" d="M390.74,144.7h0l-45.16-.1,45.16,0.1h0Z"/><path class="cls-3" d="M554.7,140.7q16.83,0,33.67-.12c-0.85-2.3-2.83-1.21-4.25-1.23-11.07-.13-22.14-0.11-33.22-0.14C551.63,141.07,553.26,140.7,554.7,140.7Z"/><path class="cls-3" d="M378.83,140.69c1.55,0,3.42.61,4.3-1.47-11.1,0-22.2,0-33.3.14-1.4,0-3.43-1.13-4.17,1.31C356.71,140.68,367.77,140.71,378.83,140.69Z"/><path class="cls-3" d="M654.35,160.68c5.9,0.07,11.81,0,17.71,0-0.22-2.22-2-1.36-3.07-1.37-6.33-.06-12.66,0-19,0C651,161.4,652.83,160.66,654.35,160.68Z"/><path class="cls-3" d="M809,260.71c-1.81-3.14-4.8-.55-7.07-1.46C803.77,262,806.62,260.16,809,260.71Z"/><path class="cls-3" d="M793.75,240.72c-1.76-3-4.51-.82-6.76-1.29C788.87,241.86,791.52,240.21,793.75,240.72Z"/><path class="cls-3" d="M710.07,180.71c-1.81-3.18-4.91-.44-7.17-1.56C704.75,182.16,707.7,180.11,710.07,180.71Z"/><path class="cls-3" d="M748.08,200.71c-1.81-3.18-4.92-.42-7.18-1.58C742.75,202.18,745.71,200.11,748.08,200.71Z"/><path class="cls-3" d="M770.94,220.71c-1.83-3-4.75-.7-7-1.44C765.77,222,768.6,220.16,770.94,220.71Z"/><path class="cls-4" d="M218,192.88c-1.79-.34-2,1.49-1.84,2.84,0.43,3.33-1.32,3.95-4.13,3.75-2.32-.16-4.67.09-7-0.06-2.73-.18-4.62.28-4.15,3.69,0.22,1.61-.12,3.22-2.25,3-3.93-.47-5.72.74-5.52,5.08,0.11,2.39-2.52,1.55-4,1.55-2.14,0-3.71.39-3.36,3,0.44,3.26-1.22,4.15-4.08,3.76s-3.91,1-3.58,3.74c0.25,2.09-.63,3.25-2.82,2.93-3.67-.54-5.3.84-4.82,4.63a1.58,1.58,0,0,1-1.74,1.93c-4.25-.51-6.4.73-6.13,5.55,0.1,1.8-2.42,1.16-3.79,1.18-2,0-3.87.22-3.47,2.88,0.56,3.77-1.64,4.14-4.45,3.85-2.37-.25-3.44.76-3.15,3.13,0.38,3-1.24,3.84-3.86,3.49-3.24-.43-4.07,1.2-3.82,4.09,0.16,1.82-.09,3.67.06,5.49,0.22,2.65-.51,4.24-3.52,3.8-3.39-.49-4.47,1.13-4.11,4.29,0.16,1.48-.12,3,0.06,4.49,0.4,3.35-.66,5.11-4.33,4.54-2.65-.41-3.46.86-3.37,3.41,0.16,4.32-.05,8.66.08,13,0.07,2.41-.48,4-3.26,3.57-4.18-.66-4.73,1.7-4.41,5,0.14,1.48-.08,3,0,4.49,0.22,2.6-.42,4.3-3.49,3.83-3.37-.51-4.18,1-4.16,4.24q0.07,10.51.08,21H223.6c0-4.9,0-9.8-.05-14.7,0-2.86.51-4.57,3.8-4,3.08,0.5,4.28-.83,3.9-3.9-0.18-1.48.11-3-.06-4.49-0.4-3.43.37-5.55,4.47-5,1.48,0.22,3.38.14,3.11-2.08-0.48-3.89,1.21-5.1,4.81-4.6,1.77,0.25,3-.45,2.77-2.46-0.51-3.89,1.69-4.46,4.79-4.14,2.13,0.22,3.17-.81,2.88-2.93-0.45-3.31,1.29-4.09,4.11-3.75,2.53,0.3,3.84-.7,3.48-3.35-0.43-3.21,1.48-3.57,3.95-3.35,2.23,0.2,4.09-.07,3.68-3.06s1.16-3.76,3.83-3.57c2.16,0.15,4.34-.07,6.5.05,2.94,0.17,5.44.08,4.89-4-0.3-2.28,1.21-2.76,3.15-2.7,2.33,0.07,4.68-.12,7,0,3.24,0.23,5.64-.15,5.09-4.38-0.34-2.59,1.69-2.35,3.36-2.35,5.33,0,10.67-.06,16,0,2.18,0,3.66-.47,3.36-3-0.4-3.4,1.55-3.72,4.26-3.68,7.5,0.12,15,0,22.5.06,2.26,0,4.11-.24,3.72-3.16-0.48-3.55,1.71-3.6,4.29-3.58,9.83,0.07,19.66,0,29.5.06,2.62,0,4.75-.1,4.25-3.61-0.41-2.93,1.41-3.14,3.68-3.14q72.49,0,145,0c2.45,0,3.9.57,3.51,3.32-0.45,3.17,1.42,3.46,3.92,3.44,10-.08,20,0,30-0.08,2.79,0,4.56.43,4.13,3.76-0.39,3.06,1.76,3,3.87,3,7.33,0,14.67.05,22,0,2.77,0,5.08,0,4.61,3.84-0.34,2.69,1.49,2.84,3.51,2.82,5.33,0,10.67.07,16,0,2.28,0,3.57.58,3.24,3.06-0.44,3.37,1.47,3.89,4.21,3.7,2-.14,4,0.11,6-0.06,3.29-.29,5.65.2,5.08,4.39-0.23,1.68.85,2.35,2.46,2.33,2.17,0,4.33,0,6.5,0,3.36-.08,6.86-0.73,6.29,4.73-0.28,2.65,2.29,1.91,3.72,1.83,2.69-.15,4.16.59,3.79,3.57-0.29,2.32.74,3.45,3.14,3.19,2.9-.32,5,0.2,4.46,3.91-0.39,2.75,1.58,3,3.53,2.75,2.91-.3,4.51.58,4.1,3.82-0.34,2.69,1.44,3,3.46,2.81,2.82-.29,4.56.44,4.09,3.75-0.37,2.58,1.19,3.25,3.33,2.94,3.72-.53,4.68,1.3,4.3,4.6-0.17,1.48.11,3-.06,4.49-0.34,3.12.61,4.8,4.06,4.25,2.92-.47,3.68.95,3.63,3.7q-0.05,2.87-.07,5.75c0,3.1,0,6.19,0,9.29H816.77q0-10.57.05-21.13c0-2.83-.52-4.6-3.8-4.12s-4.2-1-3.89-4c0.17-1.65-.09-3.34.06-5,0.26-3-.37-4.93-4-4.33-3.36.56-3.84-1.37-3.73-4.13,0.15-4-.06-8,0.07-12,0.09-2.6-.47-4.3-3.53-3.86-3.35.48-4.5-1-4.12-4.26,0.21-1.81-.07-3.67.06-5.49,0.18-2.45-.55-4-3.28-3.55-4.18.66-4.73-1.68-4.41-5,0.15-1.48-.11-3,0.05-4.49,0.34-3.05-.88-4.37-3.95-3.92-2.84.41-4-.82-3.67-3.65,0.25-2.1-.71-3.24-2.86-2.94-3.63.5-5.23-.75-4.82-4.62,0.28-2.68-2-2-3.57-2.07-2-.06-4.3.26-3.95-2.89s-1.14-4.2-4.07-3.84c-2.46.3-3.89-.57-3.53-3.3s-1.06-3.64-3.51-3.3c-3.35.46-4.55-1-4.16-4.24,0.19-1.57-.51-2.69-2.26-2.42-4,.62-5.73-0.8-5.46-5.06,0.13-2.14-2.11-1.51-3.5-1.68s-4.05.56-3.79-1.91c0.58-5.47-2.89-4.82-6.24-4.72-1.83.06-3.67-.07-5.5,0-2.36.13-4-.4-3.59-3.24,0.44-3.08-1.25-3.66-3.84-3.51-1.54.08-4,.51-3.67-2,0.58-5-2.43-4.84-5.81-4.66-2.33.13-4.66,0-7,0-1.59,0-2.7-.65-2.45-2.34,0.64-4.32-2-4.48-5.1-4.29-2.32.14-4.66,0-7,0-1.87,0-3.46-.29-3.12-2.67,0.58-4-1.85-4.25-4.83-4.06-2.16.14-4.34-.07-6.5,0.05-2.52.15-4.34-.25-3.92-3.42,0.37-2.75-1.14-3.37-3.58-3.32-5.16.11-10.33,0-15.5,0.05-2.25,0-4.1-.18-3.73-3.13s-1.25-3.62-3.86-3.55c-5.16.13-10.33,0-15.5,0-2,0-3.84-.17-3.45-2.86,0.55-3.76-1.65-3.92-4.48-3.88-7.5.11-15,0-22.49,0.06-2,0-3.82-.14-3.47-2.83,0.48-3.69-1.66-4-4.54-3.92-9.33.11-18.67-.11-28,0.11-3.76.09-6.25-.37-5.54-5A5,5,0,0,0,550,146c-4.76-.34-9.7,1.64-14.25-1.17,0.29-4.53-1.92-5.49-6.22-5.47q-66.54.25-133.08,0a7.79,7.79,0,0,0-4.24.84,3,3,0,0,0-.69.62,3.44,3.44,0,0,0-.64,1.33,7,7,0,0,0-.19,1.85q0,0.36,0,.75h0c-0.89,2.56-3.07,1.38-4.63,1.4q-18.24.17-36.49,0c-2.75,0-4.6.36-4.22,3.73,0.35,3.05-1.77,3-3.89,2.94-7.5,0-15,0-22.5,0-2.4,0-4.47.1-4,3.35s-1.52,3.43-4,3.39c-5.16-.09-10.33,0-15.5,0-2.16,0-3.7.41-3.33,3,0.47,3.32-1.29,3.86-4.1,3.77-5-.16-10,0-15,0-1.93,0-4,0-3.65,2.7,0.43,3.65-1.54,4.13-4.47,3.95-2.66-.16-5.33,0-8,0-1.43,0-3,.24-2.72,2,0.74,5-2.4,4.84-5.78,4.67-2.33-.12-4.66,0-7,0-1.57,0-2.72.51-2.47,2.27,0.6,4.21-1.81,4.66-5.07,4.36-2.89-.26-5.82.28-8.7-0.17a11.82,11.82,0,0,1-1.21-.25v0l0,0h0l0,0h0C223.73,189.53,224.55,194.13,218,192.88Zm-43,59.88-1.25-.06c-0.83,0-1.67,0-2.5,0h-1.17v0.07l-0.07,0c0.1,2.29.22,4.59,0.3,6.88,0.12,3.68.79,7.72-5.22,6.87-1.76-.25-2.22,1.24-2.1,2.68,0.35,4-2.4,3.49-4.92,3.56-3.09.08-2.93-2-2.91-4,0-1.83.12-3.67,0-5.49-0.22-2.9.77-4.52,3.91-4.2,2.67,0.28,3.72-.69,4-3.58,0.44-5,4.57-1.91,7-2.68v-0.09h0.08c0.62-2.9-1.59-7.6,4.66-6.88,2.16,0.25,3.43.63,3.39,3.13C178.07,251.15,177.9,253,175,252.76Zm55.46-56c1.93-4,3.65-4.08,6.74-4.09,1.83,0,3.67-.1,5.49,0,2.48,0.15,3.81-.72,3.59-3.39-0.25-3.07,1.66-3.56,4.14-3.46,2.16,0.08,4.34-.11,6.49,0,3.13,0.22,5.28-.42,5-4.23-0.2-2.33,1.4-2.68,3.26-2.65,2.5,0,5-.09,7.49,0,2.66,0.12,4.65-.23,4.37-3.65-0.23-2.74,1.78-2.71,3.7-2.71,4.83,0,9.66-.09,14.48,0,2.88,0.07,5-.36,4.69-4-0.24-2.63,1.48-2.91,3.53-2.89,5,0,10-.08,15,0,2.6,0.06,4.21-.54,4-3.55-0.23-2.69,1.35-3.38,3.74-3.35,5.33,0.08,10.66.11,16,0,2.82-.06,3.24,1.44,3.26,3.77s-0.63,3.82-3.36,3.67c-2.16-.12-4.33,0-6.49,0-3-.11-5.83-0.25-5.39,4.16,0.18,1.76-1.19,2.16-2.67,2.16-2.5,0-5,.11-7.49,0-2.94-.14-5.41,0-4.93,4.06,0.32,2.7-1.61,2.8-3.59,2.79-5,0-10,.08-15,0-2.7-.07-4.67.3-4.28,3.69,0.33,2.85-1.42,3.25-3.72,3.21-5-.08-10,0-15,0-2.38,0-4.44.09-4.18,3.31,0.21,2.49-1.21,3.13-3.4,3.05s-4.66.07-7,0c-2.81-.12-5.1.23-4.74,3.9a3.66,3.66,0,0,1-.05,1c-0.77,4.26-7-.43-7.07,4-0.07,4.22-1.9,5.12-5.51,4.81-2.31-.2-4.66,0-7,0-1.92,0-3.41.44-3.2,2.72,0.31,3.42-1.72,3.78-4.37,3.64-3.32-.18-6.64-0.22-10-0.31h0l-1.13,1.19c0.07,0.79.12,1.49,0.15,2.1,0,0.3,0,.59,0,0.85,0,1.31-.18,2.12-0.73,2.56-0.89.7-2.73,0.47-6.29-.09-0.15,3.88.73,8.44-5.82,7.48-2.12-.31-2.17,1.59-2.15,3.11,0.08,4.25-3.08,3-5.3,3-3.2.08-2.42-2.44-2.51-4.3-0.12-2.39,1.49-2.52,3.29-2.57s4.38,0.52,4.21-2.1c-0.34-5.27,3-4.85,6.35-4.79a3.65,3.65,0,0,0,.49,0c0.49-.06,1-0.19,1.47-0.27-0.24-3.13-.36-4.69.4-5.4s2.42-.55,5.73-0.24l0.68-.7,0.5-.51c-0.72-3.17-.17-4.55,2.4-5.69a20.23,20.23,0,0,1,2.11-.77C224.38,204.21,229,199.7,230.43,196.77Z"/><path class="cls-4" d="M170,252.67v0.09h0v-0.09h0Z"/><path class="cls-4" d="M391.53,140.78a3,3,0,0,1,.69-0.62A3,3,0,0,0,391.53,140.78Z"/><path class="cls-4" d="M390.7,144a7,7,0,0,1,.19-1.85A7,7,0,0,0,390.7,144Z"/><path class="cls-4" d="M224,185.67v0h0Z"/><path class="cls-4" d="M224,185.68h0l0,0v0Z"/><path class="cls-3" d="M535.77,144.81c4.55,2.82,9.5.84,14.25,1.17C545.47,143.22,540.51,145.33,535.77,144.81Z"/><path class="cls-3" d="M231.27,330.21c0-2.82.45-4.64,3.74-4.1,3.62,0.59,4.22-1.4,3.94-4.35-0.13-1.32.12-2.68,0-4-0.49-3.72.58-5.76,4.78-5,2.2,0.39,3.11-.86,2.84-2.91-0.43-3.27,1.19-4,4.07-3.79,1.3,0.1,3.61.69,3.41-1.61-0.37-4.29,1.38-5.62,5.39-5,2.09,0.3,2.59-1.17,2.35-2.86-0.46-3.21,1-4.16,4-3.8,1.84,0.22,4,.31,3.6-2.56-0.45-3.44,1.12-4.51,4.26-4.08,2.58,0.35,3.77-.72,3.38-3.36s0.86-3.52,3.41-3.34,5-.09,7.49.07c3,0.19,5-.3,4.34-4-0.38-2.3,1.06-2.81,3-2.74,2.16,0.08,4.34-.1,6.5,0,3.4,0.22,6.41.32,5.73-4.64-0.3-2.21,1.65-2,3.15-2,5.33,0,10.67-.08,16,0,2.33,0,4-.28,3.58-3.18s1-3.62,3.74-3.57c7.5,0.14,15,0,22.5.09,2.68,0,4.71-.17,4.22-3.63-0.42-2.95,1.41-3.12,3.68-3.1,9.83,0.07,19.67,0,29.5.07,2.94,0,5.38,0,4.87-4-0.41-3.3,2.13-2.66,4-2.66q23.75,0,47.5,0c26.83,0,53.66,0,80.5,0,3,0,5.27.11,4.74,4.09-0.37,2.82,1.77,2.63,3.65,2.63,10.17,0,20.33.06,30.5-.05,2.61,0,4.26.41,3.83,3.49-0.4,2.8,1.15,3.3,3.57,3.26,7.5-.1,15,0.05,22.5-0.08,2.9-.05,5,0.23,4.39,3.94-0.45,2.76,1.43,2.81,3.42,2.79,5.17-.05,10.34.08,15.5-0.06,2.57-.07,4.31.37,3.88,3.47-0.38,2.76,1,3.46,3.51,3.27,2-.15,4,0,6,0,3.31-.15,6.58-0.48,5.75,4.62-0.3,1.86,1.16,2.08,2.62,2.07,2.33,0,4.68.14,7,0,3.49-.26,6.34-0.17,5.62,4.71-0.34,2.34,1.76,2.06,3.16,2,3-.24,4.88.35,4.4,4-0.43,3.27,2,2.65,4,2.74,1.54,0.07,3.83-.6,3.51,2.11-0.46,3.92,1.2,5.1,4.81,4.57,2.12-.31,3.19.68,2.86,2.84-0.49,3.19.95,4.22,3.94,3.82,2.27-.3,4.06.14,3.67,3.08s1,4,3.73,3.56c3.08-.47,4.31.78,3.91,3.87-0.17,1.31.1,2.68-.05,4-0.41,3.64.07,6.3,4.81,5.52,2.62-.43,2.88,1.35,2.85,3.43,0,2.81,0,5.62,0,8.42h7.72c0-3.1,0-6.19,0-9.29q0-2.87.07-5.75c0.05-2.75-.71-4.17-3.63-3.7-3.45.56-4.41-1.13-4.06-4.25,0.16-1.48-.11-3,0.06-4.49,0.38-3.3-.58-5.13-4.3-4.6-2.14.31-3.7-.36-3.33-2.94,0.47-3.31-1.27-4-4.09-3.75-2,.21-3.8-0.11-3.46-2.81,0.4-3.23-1.19-4.12-4.1-3.82-2,.2-3.92,0-3.53-2.75,0.52-3.71-1.56-4.23-4.46-3.91-2.4.26-3.43-.86-3.14-3.19,0.37-3-1.1-3.71-3.79-3.57-1.43.08-4,.81-3.72-1.83,0.57-5.46-2.93-4.81-6.29-4.73-2.16.05-4.33,0-6.5,0-1.61,0-2.69-.65-2.46-2.33,0.57-4.19-1.79-4.67-5.08-4.39-2,.17-4-0.08-6,0.06-2.74.19-4.65-.33-4.21-3.7,0.33-2.48-1-3.11-3.24-3.06-5.33.12-10.67,0-16,0-2,0-3.85-.13-3.51-2.82,0.48-3.8-1.83-3.87-4.61-3.84-7.33.09-14.66,0-22,0-2.11,0-4.26.08-3.87-3,0.42-3.33-1.34-3.8-4.13-3.76-10,.12-20,0-30,0.08-2.5,0-4.37-.27-3.92-3.44,0.39-2.75-1.06-3.33-3.51-3.32q-72.49.07-145,0c-2.27,0-4.09.21-3.68,3.14,0.49,3.5-1.63,3.63-4.25,3.61-9.83-.08-19.66,0-29.5-0.06-2.58,0-4.78,0-4.29,3.58,0.4,2.92-1.46,3.18-3.72,3.16-7.5-.06-15,0.06-22.5-0.06-2.71,0-4.66.28-4.26,3.68,0.3,2.53-1.18,3-3.36,3-5.33-.08-10.67,0-16,0-1.67,0-3.7-.24-3.36,2.35,0.55,4.23-1.85,4.61-5.09,4.38-2.32-.16-4.67,0-7,0-1.94-.06-3.45.42-3.15,2.7,0.55,4.11-1.95,4.2-4.89,4-2.16-.12-4.34.1-6.5-0.05-2.67-.19-4.24.58-3.83,3.57s-1.45,3.27-3.68,3.06c-2.47-.22-4.38.13-3.95,3.35,0.36,2.65-1,3.65-3.48,3.35-2.82-.34-4.56.44-4.11,3.75,0.29,2.11-.75,3.15-2.88,2.93-3.09-.32-5.29.25-4.79,4.14,0.26,2-1,2.71-2.77,2.46-3.61-.5-5.29.71-4.81,4.6,0.27,2.23-1.63,2.3-3.11,2.08-4.1-.6-4.87,1.52-4.47,5,0.17,1.48-.12,3,0.06,4.49,0.38,3.07-.82,4.4-3.9,3.9-3.29-.53-3.82,1.19-3.8,4,0,4.9,0,9.8.05,14.7h7.71C231.3,335.4,231.3,332.81,231.27,330.21Z"/><path class="cls-3" d="M710.4,338h0c0-3.1,0-6.19,0-9.29C710.39,331.81,710.39,334.9,710.4,338Z"/><path class="cls-5" d="M218.69,206.11c-2.57,1.14-3.12,2.52-2.4,5.69a1.08,1.08,0,0,1,.63.64h0c3.32,0.1,6.65.14,10,.31,2.65,0.14,4.67-.22,4.37-3.64-0.2-2.28,1.28-2.76,3.2-2.72,2.33,0.05,4.68-.15,7,0,3.62,0.31,5.44-.59,5.51-4.81,0.08-4.45,6.3.24,7.07-4a3.66,3.66,0,0,0,.05-1c-0.36-3.67,1.93-4,4.74-3.9,2.33,0.1,4.66,0,7,0s3.61-.57,3.4-3.05c-0.27-3.22,1.79-3.34,4.18-3.31,5,0.07,10,0,15,0,2.31,0,4.05-.36,3.72-3.21-0.39-3.39,1.58-3.76,4.28-3.69,5,0.12,10,0,15,0,2,0,3.91-.09,3.59-2.79-0.49-4.07,2-4.19,4.93-4.06,2.49,0.12,5,0,7.49,0,1.47,0,2.84-.4,2.67-2.16-0.44-4.41,2.41-4.27,5.39-4.16,2.16,0.08,4.33-.09,6.49,0,2.73,0.16,3.38-1.24,3.36-3.67s-0.45-3.83-3.26-3.77c-5.33.12-10.66,0.08-16,0-2.39,0-4,.66-3.74,3.35,0.26,3-1.36,3.62-4,3.55-5-.12-10,0-15,0-2,0-3.77.26-3.53,2.89,0.33,3.61-1.81,4-4.69,4-4.83-.12-9.66,0-14.48,0-1.91,0-3.93,0-3.7,2.71,0.29,3.42-1.71,3.78-4.37,3.65-2.49-.12-5,0-7.49,0-1.86,0-3.46.32-3.26,2.65,0.33,3.82-1.83,4.45-5,4.23-2.15-.15-4.33,0-6.49,0-2.48-.1-4.39.39-4.14,3.46,0.22,2.67-1.11,3.54-3.59,3.39-1.82-.11-3.66,0-5.49,0-3.08,0-4.81.12-6.74,4.09-1.42,2.93-6.06,7.44-9.63,8.56A20.23,20.23,0,0,0,218.69,206.11Z"/><path class="cls-5" d="M216.92,212.44h0c3.32,0.1,6.65.14,10,.31-3.32-.18-6.64-0.22-10-0.31h0Z"/><path class="cls-5" d="M163,255.44c-0.25,2.89-1.3,3.86-4,3.58-3.14-.32-4.13,1.3-3.91,4.2,0.14,1.82,0,3.66,0,5.49,0,2.07-.18,4.12,2.91,4,2.52-.07,5.28.47,4.92-3.56-0.13-1.44.33-2.93,2.1-2.68,6,0.85,5.33-3.19,5.22-6.87-0.07-2.29-.2-4.59-0.3-6.88C167.57,253.53,163.43,250.39,163,255.44Z"/><path class="cls-5" d="M170,252.67v0.09l0.07,0-0.07-.07h0Z"/><path class="cls-5" d="M170.28,259.64c-0.07-2.29-.2-4.59-0.3-6.88h0C170.08,255.05,170.2,257.34,170.28,259.64Z"/><polygon class="cls-5" points="169.98 252.67 169.98 252.67 169.98 252.67 169.98 252.67"/><path class="cls-6" d="M207.5,218.91a3.65,3.65,0,0,1-.49,0c-3.37-.06-6.68-0.48-6.35,4.79,0.17,2.61-2.5,2-4.21,2.1s-3.42.18-3.29,2.57c0.1,1.86-.69,4.38,2.51,4.3,2.21-.06,5.38,1.21,5.3-3,0-1.51,0-3.42,2.15-3.11,6.55,1,5.67-3.61,5.82-7.48l0-.41C208.48,218.72,208,218.85,207.5,218.91Z"/><path class="cls-6" d="M174.72,245.79c-6.26-.72-4,4-4.66,6.88h1.17c0.83,0,1.67,0,2.5,0l1.25,0.06c2.93,0.2,3.1-1.6,3.14-3.84C178.16,246.42,176.88,246,174.72,245.79Z"/><path class="cls-6" d="M170,252.74v-0.07H170Z"/><path class="cls-6" d="M170,252.67h0Z"/><polygon class="cls-6" points="169.98 252.67 170.05 252.74 169.98 252.67 169.98 252.67"/><path class="cls-7" d="M215.37,213.4a1.08,1.08,0,0,1-.26-0.39h0c-3.31-.31-5-0.47-5.73.24s-0.65,2.27-.4,5.4l0,0.41c3.56,0.56,5.4.79,6.29,0.09,0.56-.44.74-1.24,0.73-2.56,0-.26,0-0.55,0-0.85,0-.61-0.08-1.3-0.15-2.1A1.09,1.09,0,0,1,215.37,213.4Z"/><path class="cls-7" d="M215.94,215.73c0-.61-0.08-1.3-0.15-2.1h0C215.85,214.43,215.91,215.13,215.94,215.73Z"/><path class="cls-7" d="M215.11,213h0c-3.31-.31-5-0.46-5.73.24C210.14,212.54,211.8,212.7,215.11,213Z"/><path class="cls-6" d="M216.29,211.8l-0.5.51-0.68.7a1.08,1.08,0,0,0,.26.39,1.09,1.09,0,0,0,.41.24h0l1.13-1.2A1.08,1.08,0,0,0,216.29,211.8Z"/><path class="cls-6" d="M215.79,212.31l-0.68.7h0Z"/><path class="cls-6" d="M215.79,213.64l1.13-1.19h0l-1.13,1.2h0Z"/><path class="cls-6" d="M215.79,213.64h0a1.09,1.09,0,0,1-.41-0.24,1.09,1.09,0,0,0,.41.24h0Z"/><path class="cls-7" d="M702.73,329.58c0-2.09-.22-3.87-2.85-3.43-4.74.78-5.21-1.88-4.81-5.52,0.15-1.32-.12-2.68.05-4,0.4-3.09-.83-4.35-3.91-3.87-2.75.42-4.12-.66-3.73-3.56s-1.4-3.38-3.67-3.08c-3,.4-4.43-0.63-3.94-3.82,0.33-2.17-.74-3.16-2.86-2.84-3.61.53-5.28-.65-4.81-4.57,0.32-2.71-2-2-3.51-2.11-1.93-.09-4.41.53-4-2.74,0.48-3.62-1.42-4.22-4.4-4-1.4.11-3.5,0.38-3.16-2,0.72-4.88-2.13-5-5.62-4.71-2.32.17-4.66,0-7,0-1.46,0-2.92-.21-2.62-2.07,0.83-5.1-2.44-4.77-5.75-4.62-2,.09-4-0.11-6,0-2.47.19-3.89-.51-3.51-3.27,0.43-3.09-1.31-3.53-3.88-3.47-5.16.14-10.33,0-15.5,0.06-2,0-3.87,0-3.42-2.79,0.6-3.71-1.49-4-4.39-3.94-7.5.13-15,0-22.5,0.08-2.41,0-4-.47-3.57-3.26,0.44-3.08-1.21-3.52-3.83-3.49-10.16.11-20.33,0-30.5,0.05-1.88,0-4,.19-3.65-2.63,0.53-4-1.69-4.1-4.74-4.09-26.83.09-53.66,0-80.5,0q-23.75,0-47.5,0c-1.89,0-4.43-.64-4,2.66,0.51,4.08-1.93,4.06-4.87,4-9.83-.1-19.67,0-29.5-0.07-2.27,0-4.09.16-3.68,3.1,0.49,3.46-1.54,3.67-4.22,3.63-7.5-.11-15,0.05-22.5-0.09-2.69-.05-4.2.57-3.74,3.57s-1.24,3.22-3.58,3.18c-5.33-.11-10.67,0-16,0-1.51,0-3.45-.16-3.15,2,0.67,5-2.33,4.86-5.73,4.64-2.16-.14-4.33,0-6.5,0-2-.07-3.41.44-3,2.74,0.61,3.68-1.39,4.17-4.34,4-2.49-.16-5,0.1-7.49-0.07s-3.81.64-3.41,3.34-0.8,3.71-3.38,3.36c-3.14-.43-4.71.63-4.26,4.08,0.38,2.87-1.76,2.78-3.6,2.56-3-.36-4.43.59-4,3.8,0.24,1.69-.25,3.16-2.35,2.86-4-.57-5.76.76-5.39,5,0.2,2.3-2.11,1.7-3.41,1.61-2.87-.21-4.5.52-4.07,3.79,0.27,2-.63,3.29-2.84,2.91-4.2-.74-5.27,1.31-4.78,5,0.17,1.31-.08,2.67,0,4,0.29,3-.32,4.94-3.94,4.35-3.29-.54-3.78,1.27-3.74,4.1,0,2.6,0,5.19,0,7.79h152q0-17.44-.07-34.87c0-3.19,1.1-4.21,4-3.78,2.75,0.39,4.09-.65,3.66-3.57s1.39-3.22,3.66-3.12c2,0.09,4.34-.36,4,2.82s0.8,4.39,3.89,3.86c3.27-.56,3.81,1.1,3.78,4q0,5.36-.06,10.73c0,8,0,16,0,23.94H527.83q0-6.76,0-13.52c0-7.07,0-14.14-.09-21.21,0-3,.66-4.42,3.85-3.93,2.59,0.4,4.23-.35,3.81-3.41-0.46-3.3,1.69-3.25,4.05-3.28s4,0.33,3.6,3.2,1.06,3.92,3.72,3.49c3.63-.58,4,1.42,4,4.36q0,17.16,0,34.31h152C702.68,335.19,702.69,332.38,702.73,329.58Z"/><path class="cls-2" d="M550.7,338q0-17.16,0-34.31c0-2.94-.32-4.94-4-4.36-2.66.43-4.17-.5-3.72-3.49s-1.26-3.23-3.6-3.2-4.51,0-4.05,3.28c0.43,3.07-1.22,3.81-3.81,3.41-3.19-.49-3.88,1-3.85,3.93,0.07,7.07.09,14.14,0.09,21.21q0,6.76,0,13.52H550.7Z"/><path class="cls-2" d="M406.2,314.06q0-5.37.06-10.73c0-2.88-.51-4.54-3.78-4-3.08.53-4.24-.8-3.89-3.86s-2-2.73-4-2.82c-2.27-.1-4.09.18-3.66,3.12s-0.91,4-3.66,3.57c-2.94-.42-4,0.59-4,3.78q0.07,17.44.07,34.87h22.87C406.19,330,406.17,322,406.2,314.06Z"/><path class="cls-2" d="M406.19,338h0c0-8,0-16,0-23.94C406.17,322,406.19,330,406.19,338Z"/><path class="cls-8" d="M1590.92,252.57a25.47,25.47,0,0,1,.43-4.48,25.48,25.48,0,0,0-.43,4.48h0Z"/><path class="cls-8" d="M1272.39,173.3h0Z"/><path class="cls-8" d="M1197.07,279.43c2,0.06,3.94.18,5.92,0.26h0C1201,279.62,1199,279.5,1197.07,279.43Z"/><path class="cls-8" d="M1302,172.68a29.72,29.72,0,0,1,.26,3.32,29.72,29.72,0,0,0-.26-3.32h0Z"/><path class="cls-8" d="M1431.77,206.59l-0.1,0Z"/><path class="cls-8" d="M1591.77,247.1a3.23,3.23,0,0,0-.42,1A3.23,3.23,0,0,1,1591.77,247.1Z"/><path class="cls-8" d="M1311,160c-1,.69-1.07,2.29-1.11,5.64h0C1309.9,162.26,1309.92,160.66,1311,160Z"/><path class="cls-8" d="M1296.07,166a3.65,3.65,0,0,1,.83-0.17A3.65,3.65,0,0,0,1296.07,166Z"/><path class="cls-8" d="M1226.79,200.56c-0.9,1.12-1,2.93-.59,5.28h0C1225.77,203.49,1225.89,201.68,1226.79,200.56Z"/><path class="cls-8" d="M1324.87,159.39h0c0,0.22,0,.44,0,0.67C1324.89,159.84,1324.88,159.61,1324.87,159.39Z"/><path class="cls-8" d="M1273.5,172.83c0.2,0,.43-0.07.68-0.09C1273.93,172.77,1273.7,172.79,1273.5,172.83Z"/><path class="cls-8" d="M1317.07,280.64l0.5-1h0Z"/><path class="cls-8" d="M1264.69,180.76c-0.59.88-.55,2.41-0.47,5.09h0C1264.13,183.17,1264.09,181.65,1264.69,180.76Z"/><path class="cls-8" d="M1250.21,186.42a1.87,1.87,0,0,0-.52.48A1.87,1.87,0,0,1,1250.21,186.42Z"/><path class="cls-8" d="M1182.67,265.94l0.74,0Z"/><path class="cls-8" d="M1301.95,177.72a4.41,4.41,0,0,0,.24-1.11A4.41,4.41,0,0,1,1301.95,177.72Z"/><path class="cls-8" d="M1181.58,266.12a4,4,0,0,1,1.09-.18A4,4,0,0,0,1181.58,266.12Z"/><path class="cls-8" d="M1324.91,160.06c0.05,0.9.14,1.82,0.13,2.66C1325,161.88,1325,161,1324.91,160.06Z"/><path class="cls-8" d="M1228.74,199.42a6.8,6.8,0,0,1,1.5-.15A6.8,6.8,0,0,0,1228.74,199.42Z"/><path class="cls-8" d="M1316,279.6l1.57,0-1.57,0c-2.33,0-4.68,0-7,0C1311.32,279.64,1313.66,279.57,1316,279.6Z"/><path class="cls-8" d="M1175.35,259.3h0Z"/><path class="cls-8" d="M1187.94,265.91h0l-1.4,0Z"/><path class="cls-8" d="M1294.18,172.42l-7.12.48,7.12-.48h0Z"/><path class="cls-8" d="M1249.18,188.17a27.34,27.34,0,0,0-.2,4.45h0A27.34,27.34,0,0,1,1249.18,188.17Z"/><path class="cls-8" d="M1268.09,179.56l1.11-.07Z"/><path class="cls-8" d="M1355.82,266.58l-0.14,0Z"/><path class="cls-8" d="M1340.24,276.72a8.73,8.73,0,0,0,.05-3.09h0A8.73,8.73,0,0,1,1340.24,276.72Z"/><path class="cls-8" d="M1266.42,179.78l0.24,0Z"/><path class="cls-8" d="M1591.77,247.1a2,2,0,0,1,.68-0.64A2,2,0,0,0,1591.77,247.1Z"/><path class="cls-8" d="M1542.19,312.57c-0.52,0-1.12.07-1.83,0.08C1541.06,312.64,1541.67,312.62,1542.19,312.57Z"/><path class="cls-8" d="M1416.09,231.89h0c-0.49,0-1,.11-1.48.1C1415.1,232,1415.6,231.91,1416.09,231.89Z"/><path class="cls-8" d="M1431.1,212.1l0.44-5.47h0Z"/><path class="cls-8" d="M1401.31,242.72a9.6,9.6,0,0,0-.22-2.11h0A9.59,9.59,0,0,1,1401.31,242.72Z"/><path class="cls-8" d="M1363.3,262.72a9.6,9.6,0,0,0-.23-2.1h0A9.61,9.61,0,0,1,1363.3,262.72Z"/><path class="cls-8" d="M1355.52,266.63l-0.41,5.43,0.41-5.43h0Z"/><path class="cls-8" d="M1393.11,252.08l0.42-5.45,0.15,0-0.15,0Z"/><path class="cls-8" d="M1378.43,255.23a12.4,12.4,0,0,0-.11-1.6h0A12.4,12.4,0,0,1,1378.43,255.23Z"/><path class="cls-8" d="M1567.77,271.32a17.19,17.19,0,0,0,.25-5.66h0A17.2,17.2,0,0,1,1567.77,271.32Z"/><path class="cls-8" d="M1570.47,259.47c-1.83.44-2,2-2.52,6.13h0C1568.45,261.46,1568.64,259.9,1570.47,259.47Z"/><path class="cls-8" d="M1575.88,256.36c0,0.86,0,1.92.06,3.21h0C1575.9,258.28,1575.88,257.22,1575.88,256.36Z"/><path class="cls-8" d="M1557.14,272.45l0.25,0Z"/><path class="cls-8" d="M1595.92,252.62h0Z"/><path class="cls-8" d="M1560.87,267.42c-0.43.83-.5,2.09,0,4.09h0C1560.38,269.52,1560.44,268.25,1560.87,267.42Z"/><path class="cls-8" d="M1562.48,266.17a6.76,6.76,0,0,1,1.3-.24A6.77,6.77,0,0,0,1562.48,266.17Z"/><path class="cls-8" d="M1408.95,235.52a10.21,10.21,0,0,0-.17-1.92h0A10.21,10.21,0,0,1,1408.95,235.52Z"/><path class="cls-8" d="M1272.2,173.52c-0.57.85-.25,2.54-0.43,5.88l0.24,0.19-0.24-.19C1272,176.05,1271.64,174.37,1272.2,173.52Z"/><path class="cls-8" d="M1551.06,278.72c-1.9-.17-3.92-0.86-5.21,1.53h0C1547.14,277.87,1549.16,278.55,1551.06,278.72Z"/><path class="cls-8" d="M1173.1,259.32c-0.06-2.37-.17-4.74-0.21-7.11,0,2.37.15,4.74,0.21,7.11h0Z"/><path class="cls-8" d="M1297.81,165.78c0.55,0,1.19.07,1.93,0.15C1299,165.84,1298.36,165.79,1297.81,165.78Z"/><path class="cls-8" d="M1177.22,245.78c1.12,0,2.24.11,3.36,0.15,0,1.71,0,3.42-.07,5.12,0-1.71.05-3.42,0.07-5.12C1179.46,245.89,1178.34,245.79,1177.22,245.78Z"/><path class="cls-9" d="M1096.84,336.71c-0.28-2.91.62-4.52,3.83-4s4.12-1.16,3.88-4.05c-0.14-1.65.12-3.34-.05-5-0.34-3.2.82-4.72,4.17-4.26,2.6,0.36,3.71-.83,3.4-3.43-0.34-2.79,1.28-3.58,3.63-3.24,3.6,0.52,4.32-1.37,4-4.39-0.12-1.32.09-2.68,0-4-0.35-3.31.22-5.65,4.4-5,2.34,0.38,3.43-.74,3.17-3.13s0.66-3.92,3.34-3.54c3.7,0.52,4.69-1.3,4.31-4.61-0.17-1.48.11-3-.06-4.49-0.35-3.17.73-4.73,4.13-4.23,2.47,0.36,3.87-.63,3.55-3.31-0.37-3.17,1.55-3.62,4-3.37s3.86-.63,3.53-3.34,1.27-3.53,3.62-3.22c3.5,0.46,4.35-1.32,4.05-4.39-0.16-1.65.09-3.34-.06-5-0.26-2.87.56-4.53,3.81-4.07,2.66,0.38,4.15-.51,3.87-3.5-0.32-3.43,2.18-2.94,4.34-3.09,2.91-.2,3.2,1.47,3.16,3.76,0,0.79,0,1.58,0,2.37,0,2.37.15,4.74,0.21,7.11l2.25,0h1.12l1.12,0c2.16,0.14,3-.81,2.92-2.93q0-1.31,0-2.62c0-.92,0-1.83,0-2.75,0-1.71.05-3.42,0.07-5.12-1.12,0-2.25-.14-3.36-0.15-0.37,0-.75,0-1.12,0-2.38.13-3.23-.92-3.17-3.25,0.05-2,.69-3.27,2.87-3,3.54,0.4,5.35-.8,5.05-4.65-0.16-2.12,1.58-2.31,3.13-2.17,2.87,0.25,4.42-.63,4.14-3.84-0.25-2.94,1.89-3.11,4-3,2.34,0.12,4-.4,3.71-3.22s1.48-3.33,3.75-3.14c2.43,0.21,3.92-.59,3.6-3.32-0.35-3,1.27-3.69,3.89-3.54s5.32,0,8,0c1.35,0,3.15,0,3-1.74-0.42-6.91,4.56-4.75,8.09-5.08-0.42-2.35-.31-4.16.59-5.28a3.11,3.11,0,0,1,1.34-1,4.41,4.41,0,0,1,.62-0.19,6.8,6.8,0,0,1,1.5-.15,12.54,12.54,0,0,1,1.87.16,68.17,68.17,0,0,0,8.93.24c0.1-1.39.13-2.5,0.16-3.39,0-.3,0-0.58,0-0.83s0-.48.07-0.69a4.38,4.38,0,0,1,.11-0.56c0.47-1.68,2-1.49,7.55-1.58a27.34,27.34,0,0,1,.2-4.45,4.3,4.3,0,0,1,.17-0.65,2.27,2.27,0,0,1,.34-0.61,1.87,1.87,0,0,1,.52-0.48,3.22,3.22,0,0,1,1-.36,27.11,27.11,0,0,1,4.66-.21h8.34c-0.09-2.68-.13-4.2.47-5.09a2.57,2.57,0,0,1,1.73-1l0.24,0a13.87,13.87,0,0,1,1.44-.17l1.11-.07,2.56-.08,0.25,0.17-0.24-.19c0.18-3.35-.14-5,0.43-5.88a1.24,1.24,0,0,1,.18-0.22h0a1.45,1.45,0,0,1,.35-0.23,2.93,2.93,0,0,1,.76-0.23c0.2,0,.43-0.07.68-0.09l0.85,0,1,0h2.69c2.77,0,5.53.14,8.3,0.22l7.12-.48c0.21-4.18.3-5.92,1.88-6.45a3.65,3.65,0,0,1,.83-0.17,7.82,7.82,0,0,1,.92,0c0.55,0,1.19.07,1.93,0.15s1.6,0.19,2.57.31l7.55-.62c0-3.35.06-5,1.11-5.64a3,3,0,0,1,1.34-.42,11.89,11.89,0,0,1,1.55,0c0.61,0,1.3.06,2.11,0.12l1.29,0.09,7.61-.33h0c0.06-1.26.1-2.28,0.19-3.11a10.21,10.21,0,0,1,.22-1.42,3.32,3.32,0,0,1,.39-1c0.75-1.2,2.35-1.2,6-1.2,4.33,0,8.66,0,13,0,1.93,0,3.39-.46,3.18-2.73-0.33-3.45,1.75-3.68,4.37-3.62,4.83,0.1,9.66,0,14.49,0,2.52,0,4.35-.5,4.09-3.53-0.24-2.69,1.12-3.38,3.59-3.38q26.49,0.1,53,0c2.71,0,4.1.75,3.84,3.66-0.21,2.36,1.09,3.32,3.34,3.23,0.5,0,1,0,1.5,0,10.22,0.19,10.22.19,10.22,10.27,0,2.83,0,5.67,0,8.5,0,3.79,1.26,8.41-5.47,7.66-2.08-.23-1.8,2-1.8,3.44,0,5.48,0,11,0,16.43h0.06v0.07c1,0,2-.09,2.94-0.07,0.33,0,.66,0,1,0.05,3,0.29,3.72-1.18,3.64-3.85-0.11-4.16.18-8.33,0-12.48-0.11-2.81.84-4.11,3.69-3.68,3.66,0.56,4-1.54,4-4.44-0.14-6,0-12-.06-18,0-2.32-.06-4.33,3.25-4.21,2.51,0.09,4.8,0,4.35,3.53-0.31,2.45,1,3.2,3.26,3.11,2.49-.11,5,0.11,7.49-0.05,3-.19,4.92.43,4.46,4-0.3,2.3,1.13,2.81,3.08,2.74s4,0,6,0c3.35-.11,6.94-0.73,6.2,4.69-0.25,1.83,1.35,2,2.74,2,2.16,0,4.33.06,6.49,0,3.23-.09,6.57-0.54,5.92,4.56-0.22,1.75,1.3,2,2.75,2,2.5,0,5,.1,7.49,0,3-.16,5.42,0,4.91,4.08-0.29,2.32,1.23,2.9,3.14,2.64,3.4-.47,5,0.73,4.52,4.33-0.25,2.05,1.24,2.43,2.92,2.41,2,0,4,0,6,0,3.34-.09,6.82-0.74,6.36,4.69-0.21,2.48,2.28,1.89,3.81,1.86,2.28,0,4.08.26,3.69,3.17s1.08,3.8,3.78,3.6c2-.15,4,0,6,0,3.14-.14,6.16-0.43,5.51,4.38-0.34,2.48,1.78,2.45,3.44,2.32,2.81-.22,4.56.47,4.14,3.78-0.28,2.21,1,3,3,2.82,2.82-.24,5,0.12,4.54,3.87-0.29,2.16,1,2.93,3,2.86s4.33,0.09,6.49,0c3.41-.19,6.39-0.27,5.86,4.69-0.27,2.58,2.13,2.1,3.64,2,2.65-.16,4.19.53,3.81,3.55s1.58,3.27,3.78,3.06c2.62-.25,4,0.47,3.93,3.51s-1.48,3.4-3.75,3.13c-3-.36-4.37.82-4,3.91,0.28,2.34-1.16,2.77-3.09,2.7-1.66-.07-3.33,0-5,0-3,0-4.71,0-5.69.57a2,2,0,0,0-.68.64,3.23,3.23,0,0,0-.42,1,25.47,25.47,0,0,0-.43,4.48H1591v0.07c1.64,0,3.28,0,4.92,0h2.5c0.83,0,1.66,0,2.5.08,3.09,0.15,5.63,0,5.62-4.13,0-1.88,1.62-2.23,3.27-2.22q8,0,16,0c1.9,0,3.4.4,3.21,2.69-0.24,2.89,1.1,3.94,3.83,3.63,3.1-.35,4.19,1.2,4,4.13-0.13,1.82.11,3.67-.05,5.49-0.26,3,.83,4.44,3.93,4.06,0.16,0,.33,0,0.5,0,5-.5,1.2,5.51,4.53,6.19,2.63,0.53,6.58-1.1,6.19,4-0.16,2.15.92,3.15,3,2.89,3.69-.47,4.71,1.37,4.35,4.66-0.13,1.15.07,2.34,0,3.49-0.32,3.4.59,5.55,4.6,5.09,1.52-.18,3.34,0,3.13,2.13-0.37,3.77,1.16,5.16,4.84,4.72,2.1-.25,3,1,3,3,0,1.67.13,3.34,0,5-0.28,3.27.19,5.69,4.4,5.11,2.08-.29,3.13.77,3,2.9-0.2,2.69.85,4.23,3.71,3.87,3.46-.43,4.39,1.26,4.11,4.37-0.17,1.82,0,3.67,0,5.49-0.11,2.25.69,3.61,3.12,3.31,3.83-.47,4.5,1.65,4.23,4.79,0,0.19,0,.38,0,0.56h15.86a7.62,7.62,0,0,1-.35-4.2c0.13-1.15-.09-2.34,0-3.49,0.34-3-.36-4.93-3.95-4.38-2.78.43-4-.72-3.71-3.61,0.19-2-.1-4,0.07-6,0.24-2.75-.68-4.14-3.6-3.71s-4.46-.57-4-3.78c0.29-2.14-.8-3.22-2.9-2.86-4.26.72-5.19-1.43-4.73-5.08,0.16-1.31-.1-2.68.05-4,0.36-3.12-.59-4.83-4.06-4.29-2.95.46-3.89-1-3.58-3.75,0.25-2.1-.64-3.28-2.82-2.89-4.73.86-5.22-1.83-4.79-5.45,0.12-1-.09-2,0-3,0.42-3.39-.33-5.58-4.44-4.93-2.31.37-3.51-.7-3.17-3.1,0.42-3-1-3.9-3.73-3.55-2.55.33-4.3-.27-3.87-3.38,0.38-2.71-1-3.67-3.49-3.28-3.84.61-4.49-1.48-4.16-4.64,0.17-1.65-.11-3.34.06-5,0.29-2.81-.75-4.11-3.63-3.7s-4.44-.58-4-3.79c0.2-1.6-.06-3.2-2.28-2.86-3.94.6-5.74-.59-5.47-5,0.16-2.49-2.44-1.71-3.91-1.67-2.47.07-3.91-.61-3.51-3.36,0.47-3.21-1.42-3.67-3.9-3.36-2.78.35-4.1-.67-3.7-3.57s-1.35-3.25-3.66-3.15c-1.91.08-4.39,0.57-3.93-2.73,0.52-3.7-1.57-4.15-4.46-3.91-1.55.13-3.4,0-3.09-2.13,0.76-5.16-2.6-4.62-5.8-4.53-2.16.06-4.33-.06-6.5,0s-3.33-.57-3-2.81c0.62-3.74-1.53-4.11-4.4-3.9-1.49.11-3.42,0.18-3.13-2,0.65-5-2.5-4.77-5.83-4.6-2.16.11-4.33-.06-6.5,0s-3.28-.72-2.94-2.87c0.59-3.79-1.64-4-4.45-3.84-1.43.09-3.44,0.36-3.1-2,0.71-4.93-2.24-4.94-5.7-4.7-2.16.15-4.33-.05-6.5,0-2,.09-3.36-0.49-3.06-2.74,0.49-3.6-1.44-4.23-4.42-4-1.46.13-3.48,0.25-3.14-2,0.75-5.05-2.36-4.86-5.74-4.67-2,.11-4-0.1-6,0-2.42.18-3.95-.41-3.54-3.22,0.44-3-1.18-3.6-3.81-3.53-5.16.15-10.33,0.06-15.5,0-1.58,0-3.82.41-3.45-2.21,0.67-4.78-2.3-4.59-5.48-4.45-2,.09-4-0.12-6,0-2.67.22-4.22-.5-3.79-3.52,0.41-2.86-1.25-3.27-3.61-3.22-5.16.11-10.33-.09-15.49,0.08-2.67.09-4.19-.51-3.73-3.52,0.43-2.84-1.19-3.28-3.56-3.23-5.16.11-10.33-.07-15.49,0.08-2.68.08-4.17-.6-3.76-3.59,0.33-2.42-.9-3.14-3.2-3.13q-34.74.08-69.48,0c-2.13,0-3.74.35-3.37,2.95,0.48,3.33-1.26,3.86-4.09,3.77-5.16-.17-10.33,0-15.49-0.08-2.24,0-3.63.53-3.23,3.05,0.54,3.4-1.33,3.78-4.09,3.7-5.16-.16-10.33,0-15.49,0-1.49,0-3.48-.17-3.17,2,0.69,5-2.3,4.89-5.73,4.67-2.32-.15-4.66,0-7,0-1.56,0-2.79.55-2.5,2.26,0.8,4.82-2.28,4.53-5.43,4.4-2.16-.09-4.34.06-6.5,0s-3.72.3-3.32,2.93c0.49,3.25-1.16,3.92-4,3.81-5-.18-10,0.05-15-0.09-2.62-.07-4.26.48-3.8,3.53,0.43,2.87-1.22,3.31-3.58,3.22-1.67-.06-4.27-0.71-3.94,2.23,0.54,4.78-2.36,4.55-5.53,4.39-2-.1-4,0.11-6,0-2.68-.22-4.22.56-3.77,3.55s-1.16,3.46-3.53,3.15c-2.81-.37-4.57.31-4.08,3.68,0.37,2.51-1.1,3.11-3.31,3-2.83-.11-5.67.06-8.5-0.05-2.17-.08-3.7.4-3.37,3,0.43,3.29-1.26,4-4.1,3.76-1.56-.12-3.84-0.46-3.44,2.18,0.71,4.76-2.2,4.63-5.41,4.47-2.16-.11-4.33.06-6.5,0s-3.73.24-3.36,2.89c0.45,3.21-1.11,4.18-4,3.82-2.4-.3-4,0.44-3.57,3.23,0.46,3.13-1.28,3.72-3.83,3.41s-4.24.45-3.81,3.48c0.39,2.79-1.12,3.52-3.54,3.2-2.85-.37-4.54.43-4.06,3.73,0.31,2.11-.7,3.22-2.85,2.92-3.65-.52-5.15.74-4.84,4.62,0.25,3.09-2.51,2-4,2-2.5-.07-3.85.59-3.46,3.32,0.45,3.1-1.31,3.77-3.87,3.42-3.26-.45-4.06,1.19-3.77,4.07,0.17,1.65-.11,3.34.06,5,0.32,3.08-.51,4.82-4,4.29-2.31-.35-4,0.24-3.63,3.13s-1,3.89-3.73,3.54c-2.51-.32-4.34.22-3.87,3.39,0.41,2.77-1.12,3.62-3.53,3.25-3.5-.53-4.42,1.16-4.09,4.28,0.16,1.48-.11,3,0.05,4.49,0.34,3.16-.27,5.26-4.15,4.59-2.48-.42-3.85.52-3.48,3.25,0.44,3.15-1.41,3.71-3.93,3.4-2.81-.35-4,0.78-3.72,3.65,0.18,2-.11,4,0.07,6,0.24,2.75-.67,4.11-3.6,3.7s-4.53.48-4.09,3.75c0.28,2.1-.67,3.27-2.84,2.89-4.28-.73-5.16,1.46-4.75,5.09,0.19,1.65-.06,3.34.05,5,0.16,2.26-.57,3.67-3.05,3.24-4.52-.79-4.88,1.85-4.6,5.25,0.15,1.82,0,3.66,0,5.5a5,5,0,0,1-.13,1.34h7.81C1096.89,337.57,1096.88,337.14,1096.84,336.71Z"/><path class="cls-10" d="M1119.81,334.66c-0.09-1.49.11-3,0-4.48-0.31-3.09.64-4.82,4.09-4.39,2.24,0.28,3.5-.62,3.31-3.06a4.22,4.22,0,0,1,.13-1.91c4.83-1.09,7.06-5.7,10.82-7.88,2.17-1.26,4.44-1,4.19-4.42-0.27-3.61,2.65-2.5,4.6-2.69,2.39-.24,3.17.93,3.18,3.24,0,2.47-.7,3.9-3.38,3.55-3.54-.45-4.27,1.47-4,4.46,0.14,1.65-.07,3.33,0,5,0.19,2.81-.62,4.57-3.85,4.24-2.5-.25-4.3.32-4,3.42,0.26,2.61-1.42,3.09-3.48,2.88-3.3-.34-4.6,1.16-4.25,4.35a7.31,7.31,0,0,1,0,1h395.54c0.08-5.23.78-5.28,7.22-5.43,0.11-4.62.55-9.27,0.21-13.86s0.83-7,5.87-6.11a9.56,9.56,0,0,0,1.92,0c0-4.28-.08-8.56-0.07-12.85,0-8.64-.52-6.87,7.07-7.16l0.92-12.32h0c1.29-2.38,3.31-1.69,5.21-1.53a4.46,4.46,0,0,0,1.82-.14c-0.9-3.72.31-5.05,2.14-5.67a13,13,0,0,1,2.12-.46l0.25,0a11,11,0,0,0,3.53-.9c-0.54-2-.48-3.26,0-4.09a2.27,2.27,0,0,1,.55-0.72,3,3,0,0,1,1.05-.54,6.77,6.77,0,0,1,1.3-.24,40.69,40.69,0,0,0,4.17-.32c0.5-4.14.69-5.7,2.52-6.13a20.81,20.81,0,0,1,5.46.1c0-1.29-.06-2.34-0.06-3.21a16.35,16.35,0,0,1,.08-1.74,5.19,5.19,0,0,1,.11-0.63,2.57,2.57,0,0,1,.16-0.49,1.5,1.5,0,0,1,.23-0.36c0.76-.87,2.47-0.46,6.12-0.53,2.78-.06,5.57,0,8.35,0a25.48,25.48,0,0,1,.43-4.48,3.23,3.23,0,0,1,.42-1,2,2,0,0,1,.68-0.64c1-.56,2.68-0.56,5.69-0.57,1.66,0,3.33-.06,5,0,1.93,0.08,3.37-.36,3.09-2.7-0.37-3.09,1-4.27,4-3.91,2.27,0.27,3.73-.21,3.75-3.13s-1.31-3.76-3.93-3.51c-2.21.21-4.15-.1-3.78-3.06s-1.16-3.71-3.81-3.55c-1.52.09-3.92,0.57-3.64-2,0.53-5-2.45-4.88-5.86-4.69-2.16.12-4.33,0-6.49,0s-3.31-.69-3-2.86c0.5-3.76-1.72-4.11-4.54-3.87-2,.17-3.28-0.6-3-2.82,0.42-3.3-1.34-4-4.14-3.78-1.66.13-3.78,0.16-3.44-2.32,0.65-4.81-2.37-4.52-5.51-4.38-2,.09-4-0.1-6,0-2.7.2-4.17-.63-3.78-3.6s-1.41-3.21-3.69-3.17c-1.52,0-4,.62-3.81-1.86,0.46-5.43-3-4.77-6.36-4.69-2,.05-4,0-6,0-1.68,0-3.17-.36-2.92-2.41,0.45-3.6-1.12-4.8-4.52-4.33-1.91.26-3.43-.32-3.14-2.64,0.5-4-1.94-4.23-4.91-4.08-2.49.13-5,0-7.49,0-1.46,0-3-.28-2.75-2,0.65-5.1-2.69-4.65-5.92-4.56-2.16.06-4.33,0-6.49,0-1.4,0-3-.19-2.74-2,0.74-5.42-2.85-4.8-6.2-4.69-2,.06-4,0-6,0s-3.38-.44-3.08-2.74c0.46-3.58-1.49-4.2-4.46-4-2.49.16-5-.06-7.49,0.05-2.27.1-3.56-.66-3.26-3.11,0.45-3.58-1.84-3.44-4.35-3.53-3.31-.12-3.27,1.89-3.25,4.21,0.05,6-.08,12,0.06,18,0.07,2.91-.29,5-4,4.44-2.85-.44-3.8.87-3.69,3.68,0.16,4.15-.13,8.32,0,12.48,0.07,2.68-.69,4.15-3.64,3.85-0.33,0-.66,0-1-0.05-1,0-2,.06-2.94.07,0,1.93,0,3.86,0,5.79,0,7.18,0,7.18-7,7.69l-0.07.38-0.15,0-0.1,0-0.11,0h0l-0.44,5.47a3.22,3.22,0,0,1-2,1.43,5.32,5.32,0,0,1-1.39.09,10.56,10.56,0,0,0-3.75,0c0,0.82,0,1.65-.06,2.47s0,1.65,0,2.47c0,7.14,0,7.14-6.84,7.57a0.54,0.54,0,0,1-.17.41,0.55,0.55,0,0,1-.44.08l-0.29,5.27h0a3.21,3.21,0,0,1-1.57,1.52c-1.76.73-4-.49-5.74,0.19a10.21,10.21,0,0,1,.17,1.92c0,2.25-1.1,3.31-2.7,3.75a7.37,7.37,0,0,1-1.29.22,18.19,18.19,0,0,1-3,0l-0.87,1.17a9.6,9.6,0,0,1,.22,2.11c-0.05,2.37-1.43,3-3.18,3.25-0.44.05-.9,0.08-1.36,0.09l-1.41,0c-0.47,0-.93,0-1.36.09l-0.08.38-0.24,0-0.15,0-0.42,5.45c-2.36,2.83-5.54,1-8.31,1.37-0.53.08-1.06,0.12-1.6,0.15-1.61.08-3.25,0-4.87,0a12.4,12.4,0,0,1,.11,1.6,4.51,4.51,0,0,1-1.09,3.31,3.36,3.36,0,0,1-1.39.81,5.54,5.54,0,0,1-1.25.23,10.93,10.93,0,0,1-2.39-.12c-2.72-.4-5.56,0-8.35,0l-0.89,1.17a9.6,9.6,0,0,1,.23,2.1c0,2.36-1.42,3-3.16,3.26a20.24,20.24,0,0,1-2.06.11c-0.71,0-1.41,0-2.07.1l-0.09.38-0.09,0-0.14,0-0.15,0-0.41,5.43c-2.05,2.92-5,1-7.56,1.38a24.94,24.94,0,0,1-3.61.21c-1.21,0-2.43,0-3.65,0a8.73,8.73,0,0,1-.05,3.09,3.41,3.41,0,0,1-.93,1.74,3.54,3.54,0,0,1-1.39.79,9.55,9.55,0,0,1-3.65.24c-5.36-.46-10.8,0-16.21,0l-0.21.22-0.28-.11-0.5,1,0,4c-3,3.12-6.74,1.06-10.1,1.34-3,.24-5.2.19-4.85,4.18,0.29,3.26-2.45,2.47-4.26,2.48-15.29,0-30.59,0-45.88,0h-11.47c-7,0-7,0-6.54-7-9,.08-18.09,0-27.13.28-5.3.14-2.71-4.11-3.82-6.29-2-.08-3.94-0.2-5.92-0.26l-2,0c-6.86,0-6.88,0-7.15-6.69l-7.43-.23c-1.5.06-3,.1-4.49,0.18a7.64,7.64,0,0,0-1.89.24c-0.16,5.63-4.41,6.66-8.59,7.9-0.28.08-.39,1.24-0.33,1.88,0.27,2.89-1.1,3.93-3.83,3.64-2.45-.26-3.77.63-3.6,3.33,0.23,3.93-2.76,2.81-4.89,3-2.66.22-2.77-1.52-2.89-3.54-0.16-2.8,1.27-3.51,3.66-3.27,2.84,0.28,3.92-1,3.71-3.79-0.13-1.65.08-3.33,0-5-0.22-3.08.8-4.77,4.22-4.45,1.22,0.11,3.42.38,3.29-1.25-0.41-5.26,2.63-5.36,6.62-5.92,2.84-.4.85-4.05,1.64-6.1-0.06-2.37-.17-4.74-0.21-7.11,0-.79,0-1.58,0-2.37,0-2.28-.25-4-3.16-3.76-2.16.15-4.66-.34-4.34,3.09,0.28,3-1.21,3.88-3.87,3.5-3.25-.47-4.07,1.2-3.81,4.07,0.15,1.65-.11,3.34.06,5,0.3,3.07-.55,4.85-4.05,4.39-2.35-.31-4,0.39-3.62,3.22s-1,3.59-3.53,3.34-4.38.2-4,3.37c0.31,2.69-1.08,3.68-3.55,3.31-3.4-.5-4.48,1.05-4.13,4.23,0.16,1.48-.11,3,0.06,4.49,0.38,3.31-.61,5.13-4.31,4.61-2.69-.38-3.61,1.06-3.34,3.54s-0.83,3.51-3.17,3.13c-4.19-.68-4.75,1.65-4.4,5,0.14,1.32-.08,2.67,0,4,0.29,3-.44,4.9-4,4.39-2.35-.34-4,0.45-3.63,3.24,0.31,2.6-.81,3.79-3.4,3.43-3.35-.46-4.51,1.05-4.17,4.26,0.17,1.65-.08,3.34.05,5,0.24,2.89-.69,4.53-3.88,4.05s-4.11,1.13-3.83,4c0,0.43.05,0.86,0.05,1.29h22.59A7.41,7.41,0,0,0,1119.81,334.66Z"/><path class="cls-10" d="M1442,192.64c-1,0-2,.06-2.94.07h0C1440,192.69,1441,192.62,1442,192.64Z"/><path class="cls-11" d="M1584.3,259.5c-2.77,0-5.54.09-8.3,0.13-0.1,6.49-.13,6.51-8,6a17.19,17.19,0,0,1-.25,5.66,2.36,2.36,0,0,1-.65,1.07c-1,.86-2.88.46-6.17-0.73-0.19,7.71-.19,7.72-7.94,8v0.06h0c0,1.62.07,3.25,0.07,4.87,0,9.82.73,7.81-8.05,8.1,0.1,4.3.25,8.6,0.27,12.9,0,5.38,0,6.73-3.08,7-0.52,0-1.12.07-1.83,0.08H1538c0,4-.06,7.95-0.07,11.92,0,9.15.54,8-7.93,8.09q0,2.68,0,5.36h167.25c0-.19,0-0.38,0-0.56,0.27-3.14-.4-5.27-4.23-4.79-2.42.3-3.23-1.05-3.12-3.31,0.09-1.83-.13-3.68,0-5.49,0.29-3.11-.65-4.8-4.11-4.37-2.86.35-3.92-1.18-3.71-3.87,0.16-2.13-.89-3.19-3-2.9-4.2.58-4.67-1.84-4.4-5.11,0.14-1.65,0-3.33,0-5,0-2-.89-3.3-3-3-3.68.44-5.21-.94-4.84-4.72,0.21-2.16-1.62-2.31-3.13-2.13-4,.47-4.92-1.68-4.6-5.09,0.11-1.16-.09-2.34,0-3.49,0.37-3.29-.65-5.13-4.35-4.66-2.07.26-3.15-.74-3-2.89,0.39-5.13-3.57-3.5-6.19-4-3.33-.67.5-6.69-4.53-6.19-0.16,0-.34,0-0.5,0-3.11.39-4.2-1.08-3.93-4.06,0.16-1.82-.08-3.67.05-5.49,0.21-2.93-.88-4.48-4-4.13-2.73.31-4.08-.74-3.83-3.63,0.19-2.3-1.31-2.71-3.21-2.69q-8,.05-16,0c-1.65,0-3.27.34-3.27,2.22,0,4.15-2.53,4.28-5.62,4.13-0.83,0-1.66-.06-2.5-0.08h-2.5c-1.64,0-3.28,0-4.92,0C1591.21,259.49,1591.19,259.48,1584.3,259.5Z"/><path class="cls-11" d="M1595.92,252.62c-1.64,0-3.28,0-4.92,0h0C1592.64,252.64,1594.28,252.62,1595.92,252.62Z"/><path class="cls-11" d="M1325,162.73a5.7,5.7,0,0,1-.25,1.74c-0.47,1.37-1.73,2.19-4.83,1.7-2-.31-2.65,1.1-2.46,2.81,0.37,3.3-1.37,3.84-4.16,3.7-3.76-.19-7.53-0.07-11.29-0.09v0.08H1302a29.72,29.72,0,0,1,.26,3.32c0,0.21,0,.42,0,0.62a4.41,4.41,0,0,1-.24,1.11c-0.5,1.35-1.82,2.13-4.88,1.69-2.07-.3-2.59,1.19-2.41,2.86,0.34,3.2-1.22,4.11-4.13,3.85-1.82-.16-3.66,0-5.49,0-3.13-.12-6.2-0.4-5.7,4.37,0.22,2.1-1.54,2.29-3.12,2.16-2.89-.25-5,0.23-4.48,3.91,0.32,2.22-.94,3-3,2.83-0.5,0-1,0-1.5,0-5.38-.4-1.69,4.87-4,6.41-2.1,1.39-6.8-1.91-6.59,3.52,0.13,3.19-1.63,3.48-4.09,3.37s-5,.06-7.5,0-4,.57-3.66,3.32c0.35,3.1-1.4,3.68-3.95,3.44-2.24-.21-4.08.14-3.71,3.08s-1,3.85-3.78,3.69c-1.37-.08-3.72-0.53-3.65,1.46,0.15,4.25-1.6,5.6-5.57,5.11-1.76-.22-2.27,1.18-2.13,2.65,0.28,3-.84,4.43-4,4-2.71-.36-4.14.63-3.77,3.57,0.3,2.43-1,3.32-3.24,3.15a4.15,4.15,0,0,1-.5,0c-5.82-1.17-2.11,5.61-5.31,6.4-2.71.67-6.95-1.22-6.15,4.37,0.23,1.58-.62,2.74-2.3,2.45a8,8,0,0,0-2.68-.1,3.45,3.45,0,0,0-1.19.41,2.67,2.67,0,0,0-.44.33c-1.33,1.21-1.2,3.61-1.16,6h0q0,3.36.06,6.73l8.41,0c7,0,7,0,6.61,7,8.08-.06,16.18.16,24.24-0.28,5-.27,7.5,1,6.76,6.3l64.75,0.14h1a3,3,0,0,0,2.63-1.15c-0.68-2.56-.41-4.26,1.21-4.94a4.14,4.14,0,0,1,1-.27,8.79,8.79,0,0,1,2.06,0c0.77,0.07,1.55.12,2.32,0.15,2.33,0.09,4.67,0,7,0l1.57,0h0l0.28,0.11,0.21-.22c-1-6.91-.95-7.11,6-6.86,5.4,0.2,10.91-1.19,16.19,1h0c1.21,0,2.43,0,3.65,0a24.94,24.94,0,0,0,3.61-.21c2.53-.37,5.51,1.54,7.56-1.38-3.8,0-7.59-.08-11.39-0.08-1.93,0-3.15-.6-3.16-2.81s1.13-2.91,3.1-2.86l11.86,0.32h0l0.15,0,0.14,0,0.09,0,0.09-.38c-0.8-7.18.62-8.31,7.07-5.57h0l0.89-1.17c-2.05-5.77-1.38-6.84,4.52-6.82,3.3,0,6.68-.52,9.84,1h0c1.62,0,3.26.06,4.87,0,0.54,0,1.07-.07,1.6-0.15,2.77-.4,5.95,1.47,8.31-1.37-3.8,0-7.59-.1-11.39-0.1-1.94,0-3.14-.62-3.15-2.82s1.14-2.91,3.1-2.85l11.85,0.32,0.15,0,0.24,0,0.08-.38c-0.78-7.2.63-8.31,7.09-5.57h0l0.87-1.17c-1.32-1.89-1.79-4.38-.33-5.82,2-1.91,4.74-1.45,7.14,0h0c1.77-.68,4,0.54,5.74-0.19a3.21,3.21,0,0,0,1.57-1.52c-0.49,0-1,.11-1.48.1a3.22,3.22,0,0,1-.48,0c-2.13-.33-5.49,1.32-5.29-3s3.53-2.22,5.61-2.63a6.1,6.1,0,0,1,1.94.27h0a0.55,0.55,0,0,0,.44-0.08,0.54,0.54,0,0,0,.17-0.41c-0.14-2.14-.4-4.28-0.41-6.41,0-7.08.14-7.21,7.35-6.1h0a10.57,10.57,0,0,1,3.75,0,5.32,5.32,0,0,0,1.39-.09,3.22,3.22,0,0,0,2-1.43c-1.48,0-3-.16-4.44-0.12-2.2.07-2.83-1.07-2.79-3.07s1-2.67,2.76-2.59c1.64,0.08,3.27.2,4.91,0.31h0l0.11,0,0.1,0,0.15,0,0.07-.38c-0.11-2.11-.3-4.21-0.32-6.32,0-7.29,0-7.31,7.32-7.23,0-5.48,0-11,0-16.43,0-1.44-.28-3.67,1.8-3.44,6.73,0.75,5.43-3.86,5.47-7.66,0-2.83,0-5.66,0-8.5,0-10.08,0-10.08-10.22-10.27-0.5,0-1,0-1.5,0-2.25.09-3.55-.86-3.34-3.23,0.26-2.91-1.12-3.67-3.84-3.66q-26.49.12-53,0c-2.47,0-3.83.69-3.59,3.38,0.27,3-1.56,3.57-4.09,3.53-4.83-.08-9.66.05-14.49,0-2.62-.05-4.7.17-4.37,3.62,0.21,2.27-1.25,2.75-3.18,2.73-4.33,0-8.66,0-13,0-3.65,0-5.25,0-6,1.2a3.32,3.32,0,0,0-.39,1,10.21,10.21,0,0,0-.22,1.42c-0.08.83-.13,1.86-0.19,3.11,0,0.22,0,.44,0,0.67C1325,161,1325,161.88,1325,162.73Z"/><path class="cls-11" d="M1324.87,159.39h0c0.06-1.26.1-2.28,0.19-3.11C1325,157.11,1324.93,158.13,1324.87,159.39Z"/><path class="cls-11" d="M1325.28,154.86a3.32,3.32,0,0,1,.39-1A3.32,3.32,0,0,0,1325.28,154.86Z"/><path class="cls-11" d="M1325.06,156.28a10.21,10.21,0,0,1,.22-1.42A10.21,10.21,0,0,0,1325.06,156.28Z"/><path class="cls-11" d="M1414.52,233.41a3.21,3.21,0,0,0,1.57-1.52h0A3.21,3.21,0,0,1,1414.52,233.41Z"/><path class="cls-11" d="M1378.32,253.63h0c1.62,0,3.26.06,4.87,0C1381.58,253.69,1379.94,253.6,1378.32,253.63Z"/><path class="cls-11" d="M1363.07,260.61l0.89-1.17-0.89,1.17h0Z"/><path class="cls-11" d="M1416.38,226.62h0a0.55,0.55,0,0,0,.44-0.08A0.55,0.55,0,0,1,1416.38,226.62Z"/><path class="cls-11" d="M1355.52,266.63l0.15,0-0.15,0h0Z"/><path class="cls-11" d="M1408.78,233.6h0c1.77-.68,4,0.54,5.74-0.19C1412.76,234.14,1410.55,232.92,1408.78,233.6Z"/><path class="cls-11" d="M1401.09,240.61l0.87-1.17-0.87,1.17h0Z"/><polygon class="cls-11" points="1317.57 279.63 1317.85 279.75 1317.57 279.63 1317.57 279.63"/><path class="cls-11" d="M1340.3,273.64c1.21,0,2.43,0,3.65,0-1.21,0-2.43,0-3.65,0h0Z"/><path class="cls-11" d="M1355.91,266.56l-0.09,0Z"/><path class="cls-11" d="M1423.93,213.62h0a10.56,10.56,0,0,1,3.75,0A10.57,10.57,0,0,0,1423.93,213.62Z"/><path class="cls-11" d="M1427.68,213.61a5.32,5.32,0,0,0,1.39-.09A5.32,5.32,0,0,1,1427.68,213.61Z"/><path class="cls-11" d="M1431.68,206.61l-0.11,0Z"/><path class="cls-11" d="M1393.92,246.57l-0.24,0Z"/><path class="cls-11" d="M1431.92,206.57l-0.15,0Z"/><path class="cls-8" d="M1171.45,265.41c-4,.56-7,0.66-6.62,5.92,0.13,1.64-2.07,1.37-3.29,1.25-3.42-.32-4.44,1.37-4.22,4.45,0.12,1.66-.09,3.33,0,5,0.21,2.76-.87,4.08-3.71,3.79-2.38-.24-3.82.47-3.66,3.27,0.12,2,.23,3.75,2.89,3.54,2.13-.17,5.12.95,4.89-3-0.16-2.7,1.16-3.6,3.6-3.33,2.73,0.29,4.1-.75,3.83-3.64-0.06-.64,0-1.8.33-1.88,4.17-1.23,8.42-2.27,8.59-7.9a7.64,7.64,0,0,1,1.89-.24c1.49-.08,3-0.12,4.49-0.18,0-4.46-.21-5.9,1.08-6.36a4,4,0,0,1,1.09-.18l0.74,0c0.81,0,1.83,0,3.14,0l1.4,0c0-2.35-.17-4.75,1.16-6a2.67,2.67,0,0,1,.44-0.33,3.45,3.45,0,0,1,1.19-.41,8,8,0,0,1,2.68.1c1.67,0.3,2.52-.86,2.3-2.45-0.8-5.59,3.44-3.7,6.15-4.37,3.19-.79-0.51-7.57,5.31-6.4a4.15,4.15,0,0,0,.5,0c2.27,0.17,3.55-.72,3.24-3.15-0.37-2.95,1.06-3.93,3.77-3.57,3.11,0.42,4.24-1,4-4-0.14-1.47.37-2.86,2.13-2.65,4,0.49,5.72-.86,5.57-5.11-0.07-2,2.27-1.54,3.65-1.46,2.74,0.16,4.14-.79,3.78-3.69s1.47-3.3,3.71-3.08c2.55,0.24,4.3-.33,3.95-3.44-0.31-2.75,1.25-3.42,3.66-3.32s5-.07,7.5,0,4.21-.18,4.09-3.37c-0.21-5.43,4.49-2.13,6.59-3.52,2.32-1.54-1.37-6.8,4-6.41,0.5,0,1,0,1.5,0,2,0.15,3.3-.61,3-2.83-0.52-3.68,1.58-4.16,4.48-3.91,1.58,0.14,3.34-.06,3.12-2.16-0.49-4.77,2.57-4.49,5.7-4.37,1.83,0.07,3.68-.12,5.49,0,2.9,0.26,4.47-.65,4.13-3.85-0.18-1.67.34-3.16,2.41-2.86,3.06,0.44,4.37-.34,4.88-1.69a4.41,4.41,0,0,0,.24-1.11c0-.2,0-0.41,0-0.62a29.72,29.72,0,0,0-.26-3.32l-7.78-.26-7.12.48c-0.29,6.46-.29,6.45-6.87,6.46-2.81,0-5.61,0-8.42,0l0.24,0.19-0.25-.17c-0.09,7.58.71,6.38-7.49,6.5-0.38,6.71-.41,6.71-7,6.72l-8.27,0c1.45,7-3.23,7-7.95,7.05,0.39,2.88.73,5-3.67,5.53-3.74.44-7.43,0.5-11.15,0.65,0,3.82.32,7.83-5.72,6.85-1.75-.28-2.08,1.42-1.93,2.81,0.34,3.23-1.3,4.13-4.16,3.8-2.43-.28-3.89.53-3.56,3.28s-1.18,3.54-3.59,3.26c-2.91-.33-4.43.69-4.08,3.87s-1.93,3-4,2.84c-2.49-.18-3.85.63-3.54,3.33s-1,3.68-3.5,3.41c-2.77-.3-4.07.43-4.29,3.7-0.36,5.32-4.9,1.81-7.35,2.87,0,1.71,0,3.42-.07,5.12,0,0.92,0,1.83,0,2.75s0,1.75,0,2.62c0,2.12-.76,3.08-2.92,2.93l-1.12,0h-1.12l-2.25,0h0C1172.3,261.36,1174.3,265,1171.45,265.41Z"/><path class="cls-8" d="M1180.49,253.8c0-.92,0-1.83,0-2.75C1180.5,252,1180.49,252.88,1180.49,253.8Z"/><path class="cls-8" d="M1175.35,259.3l-2.25,0h0Z"/><path class="cls-8" d="M1189.54,259.62a3.45,3.45,0,0,1,1.19-.41A3.45,3.45,0,0,0,1189.54,259.62Z"/><path class="cls-8" d="M1189.09,260c-1.33,1.21-1.2,3.61-1.16,6h0C1187.9,263.56,1187.76,261.17,1189.09,260Z"/><path class="cls-11" d="M1187.94,243.06c0.22-3.28,1.52-4,4.29-3.7,2.52,0.27,3.81-.76,3.5-3.41s1.05-3.52,3.54-3.33c2,0.15,4.3.3,4-2.84s1.17-4.2,4.08-3.87c2.41,0.27,3.93-.5,3.59-3.26s1.13-3.56,3.56-3.28c2.86,0.33,4.5-.57,4.16-3.8-0.15-1.39.18-3.09,1.93-2.81,6,1,5.69-3,5.72-6.85h-0.06v-0.07c-3.53.33-8.51-1.82-8.09,5.08,0.11,1.73-1.7,1.73-3,1.74-2.66,0-5.33.12-8,0s-4.24.53-3.89,3.54c0.32,2.72-1.17,3.52-3.6,3.32-2.27-.19-4,0.27-3.75,3.14s-1.38,3.34-3.71,3.22c-2.11-.11-4.26.06-4,3,0.28,3.21-1.27,4.09-4.14,3.84-1.55-.13-3.3.05-3.13,2.17,0.3,3.85-1.52,5.06-5.05,4.65-2.19-.25-2.82,1-2.87,3-0.06,2.33.79,3.38,3.17,3.25,0.37,0,.74,0,1.12,0,1.12,0,2.24.11,3.37,0.15C1183,244.87,1187.58,248.38,1187.94,243.06Z"/><path class="cls-11" d="M1226.21,205.91v-0.07h0v0.07h0Z"/><path class="cls-8" d="M1313.33,172.68c2.79,0.14,4.53-.41,4.16-3.7-0.19-1.7.5-3.11,2.46-2.81,3.1,0.48,4.36-.33,4.83-1.7a5.7,5.7,0,0,0,.25-1.74c0-.85-0.07-1.76-0.13-2.66,0-.22,0-0.45,0-0.67l-7.61.33c0,6.61,0,6.61-7.4,5.89h0l-7.55.62L1302,172.6C1305.8,172.61,1309.58,172.5,1313.33,172.68Z"/><path class="cls-8" d="M1309.86,165.61l-7.55.62,7.55-.62h0Z"/><path class="cls-8" d="M1325,162.73a5.7,5.7,0,0,1-.25,1.74A5.7,5.7,0,0,0,1325,162.73Z"/><path class="cls-11" d="M1280.19,179.36c6.59,0,6.59,0,6.87-6.46-2.77-.08-5.53-0.21-8.3-0.22h-2.69l-1,0-0.85,0c-0.25,0-.48.05-0.68,0.09a2.93,2.93,0,0,0-.76.23,1.46,1.46,0,0,0-.35.23h0a1.24,1.24,0,0,0-.18.22c-0.57.85-.25,2.54-0.43,5.88C1274.58,179.39,1277.38,179.36,1280.19,179.36Z"/><path class="cls-11" d="M1272.75,173.06a2.93,2.93,0,0,1,.76-0.23A2.93,2.93,0,0,0,1272.75,173.06Z"/><path class="cls-11" d="M1272.4,173.29a1.46,1.46,0,0,1,.35-0.23A1.45,1.45,0,0,0,1272.4,173.29Z"/><path class="cls-11" d="M1272.2,173.52a1.24,1.24,0,0,1,.18-0.22A1.24,1.24,0,0,0,1272.2,173.52Z"/><path class="cls-11" d="M1275,172.7l1,0Z"/><path class="cls-11" d="M1249,192.61v0.06l8.27,0c6.56,0,6.58,0,7-6.72h-0.05v-0.07h-8.34a27.11,27.11,0,0,0-4.66.21,3.22,3.22,0,0,0-1,.36,1.87,1.87,0,0,0-.52.48,2.27,2.27,0,0,0-.34.61,4.31,4.31,0,0,0-.17.65,27.34,27.34,0,0,0-.2,4.45h0Z"/><path class="cls-11" d="M1264.22,185.92v-0.07h0v0.07h0Z"/><path class="cls-11" d="M1249.18,188.17a4.31,4.31,0,0,1,.17-0.65A4.3,4.3,0,0,0,1249.18,188.17Z"/><path class="cls-11" d="M1249.35,187.51a2.27,2.27,0,0,1,.34-0.61A2.27,2.27,0,0,0,1249.35,187.51Z"/><path class="cls-11" d="M1250.21,186.42a3.22,3.22,0,0,1,1-.36A3.22,3.22,0,0,0,1250.21,186.42Z"/><path class="cls-11" d="M1226.2,205.84h0.07v0.07c3.72-.15,7.41-0.22,11.15-0.65,4.4-.52,4.06-2.66,3.67-5.53H1241v-0.05a68.17,68.17,0,0,1-8.93-.24,12.54,12.54,0,0,0-1.87-.16,6.8,6.8,0,0,0-1.5.15,4.41,4.41,0,0,0-.62.19,3.11,3.11,0,0,0-1.34,1C1225.89,201.68,1225.77,203.49,1226.2,205.84Z"/><path class="cls-11" d="M1228.13,199.61a3.11,3.11,0,0,0-1.34,1A3.11,3.11,0,0,1,1228.13,199.61Z"/><polygon class="cls-11" points="1241.04 199.72 1241.04 199.72 1241.04 199.72 1241.04 199.72"/><path class="cls-11" d="M1226.21,205.91h0l0,0Z"/><path class="cls-11" d="M1226.27,205.84h-0.07v0.07l0,0Z"/><path class="cls-11" d="M1226.22,205.89l0,0h0.06v-0.07Z"/><path class="cls-11" d="M1226.27,205.84l0,0.05Z"/><path class="cls-11" d="M1241.08,199.67v0.05c4.72,0,9.4-.09,7.95-7.05H1249v-0.06c-5.58.1-7.08-.09-7.55,1.58a4.38,4.38,0,0,0-.11.56c0,0.21-.05.44-0.07,0.69s0,0.53,0,.83c0,0.89-.07,2-0.16,3.39h0Z"/><path class="cls-11" d="M1249,192.67v-0.06h0v0.06h0Z"/><path class="cls-11" d="M1241.25,195.45c0-.25,0-0.48.07-0.69C1241.29,195,1241.27,195.2,1241.25,195.45Z"/><path class="cls-11" d="M1241.32,194.76a4.38,4.38,0,0,1,.11-0.56A4.38,4.38,0,0,0,1241.32,194.76Z"/><path class="cls-11" d="M1241.2,196.28c0,0.89-.07,2-0.16,3.39h0C1241.14,198.28,1241.17,197.17,1241.2,196.28Z"/><path class="cls-11" d="M1249,192.67h0Z"/><path class="cls-11" d="M1249,192.61h0v0.06h0Z"/><path class="cls-11" d="M1249,192.66h0v-0.06Z"/><path class="cls-11" d="M1249,192.61l0,0Z"/><path class="cls-11" d="M1241,199.72v-0.05h0v0.05h0Z"/><path class="cls-11" d="M1241.08,199.67h0v0.05l0,0Z"/><path class="cls-11" d="M1241.06,199.7l0,0h0.05v-0.05Z"/><path class="cls-11" d="M1241,199.72h0l0,0Z"/><path class="cls-11" d="M1302,172.68V172.6H1302l0.28-6.37c-1-.12-1.82-0.23-2.57-0.31s-1.38-.13-1.93-0.15a7.82,7.82,0,0,0-.92,0,3.65,3.65,0,0,0-.83.17c-1.58.53-1.68,2.27-1.88,6.45h0Z"/><path class="cls-11" d="M1296.07,166c-1.58.53-1.68,2.27-1.88,6.45h0C1294.39,168.24,1294.49,166.5,1296.07,166Z"/><path class="cls-11" d="M1296.89,165.81a7.82,7.82,0,0,1,.92,0A7.82,7.82,0,0,0,1296.89,165.81Z"/><path class="cls-11" d="M1302,172.6h0l0,0Z"/><path class="cls-11" d="M1302,172.6h0v0.08h0V172.6Z"/><path class="cls-11" d="M1302,172.68l0,0,0,0v0.08H1302Z"/><path class="cls-11" d="M1302,172.68V172.6H1302l0,0Z"/><path class="cls-11" d="M1264.22,185.85h0.06v0.07c8.2-.12,7.4,1.08,7.49-6.5l-2.56.08-1.11.07a13.87,13.87,0,0,0-1.44.17l-0.24,0a2.57,2.57,0,0,0-1.73,1C1264.09,181.65,1264.13,183.17,1264.22,185.85Z"/><path class="cls-11" d="M1266.42,179.78a2.57,2.57,0,0,0-1.73,1A2.57,2.57,0,0,1,1266.42,179.78Z"/><path class="cls-11" d="M1266.65,179.74a13.87,13.87,0,0,1,1.44-.17A13.87,13.87,0,0,0,1266.65,179.74Z"/><path class="cls-11" d="M1264.22,185.92h0l0,0Z"/><path class="cls-11" d="M1264.28,185.85h-0.06v0.07l0,0Z"/><path class="cls-11" d="M1264.24,185.9l0,0h0.05v-0.07Z"/><path class="cls-11" d="M1264.28,185.85l0,0.05Z"/><path class="cls-11" d="M1309.86,165.61c7.44,0.72,7.44.72,7.4-5.89l-1.29-.09c-0.81-.06-1.5-0.1-2.11-0.12a11.89,11.89,0,0,0-1.55,0,3,3,0,0,0-1.34.42C1309.92,160.66,1309.9,162.26,1309.86,165.61Z"/><path class="cls-11" d="M1311,160a3,3,0,0,1,1.34-.42A3,3,0,0,0,1311,160Z"/><path class="cls-11" d="M1313.86,159.52c0.61,0,1.3.06,2.11,0.12C1315.16,159.58,1314.47,159.53,1313.86,159.52Z"/><path class="cls-11" d="M1313.86,159.52a11.89,11.89,0,0,0-1.55,0A11.89,11.89,0,0,1,1313.86,159.52Z"/><path class="cls-9" d="M1299.75,285.77h-1l-64.75-.14v0.06h-0.07c-0.49,7-.47,7,6.54,7h11.47c15.29,0,30.59,0,45.88,0,1.81,0,4.55.78,4.26-2.48-0.35-4,1.9-3.94,4.85-4.18,3.36-.28,7.12,1.78,10.1-1.34l-14.66,0A3,3,0,0,1,1299.75,285.77Z"/><path class="cls-9" d="M1302.38,284.62h0a3,3,0,0,1-2.63,1.15A3,3,0,0,0,1302.38,284.62Z"/><path class="cls-8" d="M1127.16,337c-0.35-3.19,1-4.69,4.25-4.35,2.06,0.21,3.74-.27,3.48-2.88-0.31-3.11,1.49-3.68,4-3.42,3.23,0.33,4-1.44,3.85-4.24-0.11-1.65.1-3.33,0-5-0.25-3,.48-4.91,4-4.46,2.69,0.34,3.4-1.09,3.38-3.55,0-2.31-.79-3.48-3.18-3.24-1.95.2-4.87-.92-4.6,2.69,0.25,3.41-2,3.16-4.19,4.42-3.76,2.18-6,6.79-10.82,7.88a4.22,4.22,0,0,0-.13,1.91c0.19,2.45-1.08,3.34-3.31,3.06-3.45-.43-4.4,1.29-4.09,4.39,0.15,1.48-.05,3,0,4.48a7.41,7.41,0,0,1-.32,3.34h7.69A7.31,7.31,0,0,0,1127.16,337Z"/><path d="M1530,332.64h-0.07v-0.08c-6.44.15-7.14,0.21-7.22,5.43H1530Q1530,335.32,1530,332.64Z"/><path class="cls-12" d="M1234,285.64c0.75-5.29-1.79-6.57-6.76-6.3-8.06.44-16.16,0.22-24.24,0.28v0.07h0c1.11,2.18-1.48,6.42,3.82,6.29,9-.23,18.08-0.2,27.13-0.28v-0.06H1234Z"/><path class="cls-12" d="M1203,279.7h0Z"/><path class="cls-12" d="M1233.94,285.64v0.06H1234Z"/><path class="cls-12" d="M1234,285.7v-0.06h-0.08Z"/><path class="cls-12" d="M1530,332.64c8.48-.09,7.93,1.06,7.93-8.09,0-4,0-7.95.07-11.92h-0.07v-0.06a9.56,9.56,0,0,1-1.92,0c-5-.89-6.21,1.48-5.87,6.11s-0.11,9.24-.21,13.86H1530v0.08Z"/><path class="cls-12" d="M1537.94,324.55c0-4,0-7.95.07-11.92h0C1538,316.61,1537.94,320.58,1537.94,324.55Z"/><path class="cls-12" d="M1530,332.57h-0.07v0.08Z"/><path class="cls-12" d="M1529.93,332.65H1530v-0.08Z"/><path class="cls-9" d="M1340.3,273.64c-5.28-2.16-10.8-.77-16.19-1-7-.25-7-0.06-6,6.86,5.41,0,10.85-.49,16.21,0a9.55,9.55,0,0,0,3.65-.24,3.54,3.54,0,0,0,1.39-.79,3.41,3.41,0,0,0,.93-1.74A8.73,8.73,0,0,0,1340.3,273.64Z"/><path class="cls-9" d="M1339.31,278.46a3.54,3.54,0,0,1-1.39.79A3.54,3.54,0,0,0,1339.31,278.46Z"/><path class="cls-9" d="M1340.24,276.72a3.41,3.41,0,0,1-.93,1.74A3.41,3.41,0,0,0,1340.24,276.72Z"/><path class="cls-9" d="M1538,312.57h0v0.06h2.36c0.7,0,1.31,0,1.83-.08,3.11-.3,3.12-1.65,3.08-7,0-4.3-.18-8.6-0.27-12.9h-0.07v-0.08c-7.59.29-7-1.48-7.07,7.16,0,4.28,0,8.56.07,12.85H1538Z"/><path class="cls-9" d="M1538,312.63h0Z"/><path class="cls-9" d="M1537.93,312.63l0,0,0,0h0Z"/><path class="cls-9" d="M1538,312.63h0v-0.06h0v0.06Z"/><path class="cls-9" d="M1538,312.6l0,0h-0.07v0.06Z"/><path class="cls-9" d="M1538,312.63v-0.06l0,0,0,0H1538Z"/><path class="cls-9" d="M1538,312.57h0l0,0,0,0h0Z"/><path class="cls-9" d="M1203,279.62H1203c0.43-7,.41-7-6.61-7l-8.41,0v0.07h-0.06c0.27,6.67.29,6.65,7.15,6.69l2,0c2,0.06,3.94.18,5.92,0.26Z"/><polygon class="cls-9" points="1203.01 279.7 1203.01 279.7 1202.95 279.62 1203.01 279.7"/><path class="cls-9" d="M1203,279.69h0l-0.06-.07Z"/><path class="cls-9" d="M1203,279.7v-0.07H1203Z"/><path class="cls-9" d="M1576,259.57v0.06c2.77,0,5.54-.12,8.3-0.13,6.89,0,6.92,0,6.7-6.87h-0.08v-0.07c-2.78,0-5.57,0-8.35,0-3.66.07-5.36-.33-6.12,0.53a1.5,1.5,0,0,0-.23.36,2.57,2.57,0,0,0-.16.49,5.19,5.19,0,0,0-.11.63,16.35,16.35,0,0,0-.08,1.74c0,0.86,0,1.92.06,3.21H1576Z"/><path class="cls-9" d="M1590.92,252.64h0Z"/><path class="cls-9" d="M1575.88,256.36a16.35,16.35,0,0,1,.08-1.74A16.35,16.35,0,0,0,1575.88,256.36Z"/><path class="cls-9" d="M1576.06,254a2.57,2.57,0,0,1,.16-0.49A2.57,2.57,0,0,0,1576.06,254Z"/><path class="cls-9" d="M1576.22,253.51a1.5,1.5,0,0,1,.23-0.36A1.5,1.5,0,0,0,1576.22,253.51Z"/><path class="cls-9" d="M1590.92,252.64h0v-0.07h0v0.07Z"/><path class="cls-9" d="M1591,252.57h-0.07v0.07Z"/><polygon class="cls-9" points="1590.92 252.64 1590.92 252.64 1590.92 252.64 1590.92 252.64"/><path class="cls-9" d="M1590.92,252.64H1591v-0.07l-0.08.07h0Z"/><path class="cls-9" d="M1368.48,252.63c-5.9,0-6.57,1-4.52,6.82,2.79,0,5.62-.39,8.35,0a10.93,10.93,0,0,0,2.39.12,5.54,5.54,0,0,0,1.25-.23,3.35,3.35,0,0,0,1.39-.81,4.51,4.51,0,0,0,1.09-3.31,12.4,12.4,0,0,0-.11-1.6C1375.17,252.11,1371.79,252.64,1368.48,252.63Z"/><path class="cls-9" d="M1376,259.35a5.54,5.54,0,0,1-1.25.23A5.54,5.54,0,0,0,1376,259.35Z"/><path class="cls-9" d="M1378.43,255.23a4.51,4.51,0,0,1-1.09,3.31A4.51,4.51,0,0,0,1378.43,255.23Z"/><path class="cls-9" d="M1377.34,258.54a3.35,3.35,0,0,1-1.39.81A3.36,3.36,0,0,0,1377.34,258.54Z"/><path d="M1545.85,280.25l-0.92,12.32H1545v0.08c8.79-.29,8,1.72,8.05-8.1,0-1.62,0-3.24-.07-4.87C1550.63,280.18,1548.32,281.25,1545.85,280.25Z"/><path d="M1545.85,280.25h0l-0.92,12.32h0Z"/><path d="M1553.05,284.55c0-1.62,0-3.25-.07-4.87h0C1553,281.3,1553.06,282.92,1553.05,284.55Z"/><path d="M1544.93,292.57h0v0Z"/><path d="M1544.93,292.57v0.08l0.07-.08h-0.06Z"/><path d="M1544.93,292.65H1545v-0.08Z"/><path class="cls-9" d="M1431.68,199.87c0,2.11.21,4.21,0.32,6.32,7-.51,7-0.51,7-7.69,0-1.93,0-3.86,0-5.79H1439v-0.07C1431.66,192.56,1431.64,192.58,1431.68,199.87Z"/><path class="cls-9" d="M1439,192.71h0Z"/><polygon class="cls-9" points="1439 192.71 1439 192.71 1439 192.71 1439 192.71"/><path class="cls-9" d="M1439,192.71h0.06v-0.07l0,0Z"/><path class="cls-9" d="M1439,192.67l0,0H1439v0.07Z"/><path class="cls-9" d="M1439,192.67l0,0h0Z"/><path class="cls-12" d="M1416.58,219.72c0,2.14.27,4.28,0.41,6.41,6.84-.42,6.83-0.42,6.84-7.57,0-.82,0-1.65,0-2.47s0-1.65.06-2.47C1416.72,212.51,1416.53,212.64,1416.58,219.72Z"/><path class="cls-12" d="M1423.87,216.09c0-.82,0-1.65.06-2.47h0C1423.91,214.45,1423.89,215.27,1423.87,216.09Z"/><path d="M1309,279.56c-0.78,0-1.55-.08-2.32-0.15a8.79,8.79,0,0,0-2.06,0,4.14,4.14,0,0,0-1,.27c-1.62.68-1.89,2.38-1.21,4.94h0l14.66,0,0-4-1.08-1C1313.66,279.57,1311.32,279.64,1309,279.56Z"/><path d="M1303.59,279.68a4.14,4.14,0,0,1,1-.27A4.14,4.14,0,0,0,1303.59,279.68Z"/><path d="M1302.38,284.62c-0.68-2.56-.41-4.26,1.21-4.94-1.62.68-1.89,2.38-1.21,4.94h0Z"/><path d="M1355.52,266.63h0l-11.86-.32c-2-.06-3.11.67-3.1,2.86s1.23,2.81,3.16,2.81c3.8,0,7.59,0,11.39.08l0.41-5.43h0Z"/><path d="M1355.52,266.63l-11.86-.32,11.86,0.32h0Z"/><path d="M1381.68,246.31c-2-.06-3.11.66-3.1,2.85s1.21,2.82,3.15,2.82c3.8,0,7.59.06,11.39,0.1l0.42-5.45Z"/><path class="cls-3" d="M1561,271.66l0-.15h0a11,11,0,0,1-3.53.9l-0.25,0a13,13,0,0,0-2.12.46c-1.83.62-3,1.95-2.14,5.67l0.13,1C1560.76,279.38,1560.76,279.38,1561,271.66Z"/><path class="cls-3" d="M1555,272.91a13,13,0,0,1,2.12-.46A13,13,0,0,0,1555,272.91Z"/><path class="cls-3" d="M1560.92,271.51a11,11,0,0,1-3.53.9,11,11,0,0,0,3.53-.9h0Z"/><path class="cls-9" d="M1401.64,233.63c-1.46,1.43-1,3.92.33,5.82a18.19,18.19,0,0,0,3,0,7.37,7.37,0,0,0,1.29-.22c1.6-.44,2.66-1.49,2.7-3.75a10.21,10.21,0,0,0-.17-1.92C1406.37,232.19,1403.59,231.72,1401.64,233.63Z"/><path class="cls-9" d="M1406.25,239.27c1.6-.44,2.66-1.49,2.7-3.75C1408.91,237.78,1407.85,238.83,1406.25,239.27Z"/><path class="cls-9" d="M1406.25,239.27a7.37,7.37,0,0,1-1.29.22A7.37,7.37,0,0,0,1406.25,239.27Z"/><path class="cls-12" d="M1560.92,271.51l0,0.15c3.29,1.19,5.17,1.59,6.17.73a2.36,2.36,0,0,0,.65-1.07,17.2,17.2,0,0,0,.25-5.66h-0.07V265.6a40.69,40.69,0,0,1-4.17.32,6.76,6.76,0,0,0-1.3.24,3,3,0,0,0-1.05.54,2.27,2.27,0,0,0-.55.72C1560.44,268.25,1560.38,269.52,1560.92,271.51Z"/><path class="cls-12" d="M1567.94,265.65V265.6h0v0.05h0Z"/><path class="cls-12" d="M1560.87,267.42a2.27,2.27,0,0,1,.55-0.72A2.27,2.27,0,0,0,1560.87,267.42Z"/><path class="cls-12" d="M1567.77,271.32a2.36,2.36,0,0,1-.65,1.07A2.36,2.36,0,0,0,1567.77,271.32Z"/><path class="cls-9" d="M1188,272.64l-0.06-6.73h0l-1.4,0c-1.3,0-2.33,0-3.14,0l-0.74,0a4,4,0,0,0-1.09.18c-1.29.45-1.12,1.9-1.08,6.36l7.43,0.23v-0.06H1188Z"/><path class="cls-9" d="M1188,272.64h0q0-3.36-.06-6.73h0Z"/><path class="cls-9" d="M1186.54,265.94c-1.3,0-2.33,0-3.14,0C1184.21,265.92,1185.24,265.95,1186.54,265.94Z"/><path class="cls-9" d="M1188,272.71v-0.07h0v0.07Z"/><path class="cls-9" d="M1187.93,272.64v0.06H1188Z"/><path class="cls-9" d="M1187.93,272.64l0.06,0.07v-0.07h-0.06Z"/><path class="cls-9" d="M1568,265.6H1568v0.07c7.84,0.49,7.88.47,8-6h-0.06v-0.07a20.81,20.81,0,0,0-5.46-.1C1568.64,259.9,1568.45,261.46,1568,265.6Z"/><path class="cls-9" d="M1575.93,259.64h0v-0.07h0v0.07h0Z"/><path class="cls-9" d="M1568,265.59h0v0.07h0v-0.07h0Z"/><path class="cls-9" d="M1576,259.57h-0.06v0.07l0,0Z"/><path class="cls-9" d="M1576,259.61l0,0H1576v-0.06Z"/><path class="cls-9" d="M1575.93,259.64h0l0,0Z"/><path class="cls-9" d="M1567.94,265.65h0l0,0Z"/><path class="cls-9" d="M1568,265.59H1568v0.05l0,0Z"/><path class="cls-9" d="M1568,265.62l0,0H1568v-0.07Z"/><path class="cls-9" d="M1568,265.59h0l0,0Z"/><path class="cls-9" d="M1394,246.19c0.44-.05.9-0.07,1.36-0.09l1.41,0c0.47,0,.93,0,1.36-0.09,1.75-.21,3.13-0.89,3.18-3.25a9.59,9.59,0,0,0-.22-2.11C1394.62,237.88,1393.22,239,1394,246.19Z"/><path class="cls-9" d="M1396.77,246.07l-1.41,0Z"/><path class="cls-9" d="M1398.13,246c1.75-.21,3.13-0.89,3.18-3.25C1401.26,245.09,1399.88,245.77,1398.13,246Z"/><path class="cls-9" d="M1398.13,246c-0.44.05-.9,0.08-1.36,0.09C1397.24,246.05,1397.7,246,1398.13,246Z"/><path class="cls-9" d="M1356,266.18c0.66-.07,1.37-0.08,2.07-0.1a20.24,20.24,0,0,0,2.06-.11c1.74-.21,3.11-0.9,3.16-3.26a9.61,9.61,0,0,0-.23-2.1C1356.62,257.88,1355.19,259,1356,266.18Z"/><path class="cls-9" d="M1360.13,266a20.24,20.24,0,0,1-2.06.11A20.24,20.24,0,0,0,1360.13,266Z"/><path class="cls-9" d="M1360.13,266c1.74-.21,3.11-0.9,3.16-3.26C1363.25,265.08,1361.87,265.76,1360.13,266Z"/><path d="M1426.64,206.33c-1.79-.09-2.72.68-2.76,2.59s0.59,3.14,2.79,3.07c1.48,0,3,.07,4.44.12l0.44-5.47C1429.91,206.53,1428.28,206.4,1426.64,206.33Z"/><path d="M1414.44,226.36c-2.08.41-5.42-1.58-5.61,2.63s3.17,2.64,5.29,3a3.22,3.22,0,0,0,.48,0c0.49,0,1-.08,1.48-0.1l0.29-5.27A6.1,6.1,0,0,0,1414.44,226.36Z"/><path d="M1416.09,231.89l0.29-5.27h0Z"/><path class="cls-11" d="M1553,279.68v-0.06h0l-0.13-1a4.46,4.46,0,0,1-1.82.14c-1.9-.17-3.92-0.85-5.21,1.53h0C1548.32,281.25,1550.63,280.18,1553,279.68Z"/><polygon class="cls-11" points="1545.85 280.25 1545.85 280.25 1545.85 280.25 1545.85 280.25"/><path class="cls-11" d="M1553,279.61v0.06h0v-0.06h0Z"/><path class="cls-11" d="M1553,279.61v0.06h0l0,0Z"/><path class="cls-11" d="M1553,279.61h0l0,0,0,0v-0.06h0Z"/><path class="cls-11" d="M1553,279.61h0l0,0Z"/><path class="cls-9" d="M1316,279.6l1.08,1,0.5-1Z"/><path class="cls-7" d="M2677.13,332.51c0-1.66-.32-3.28-2.37-3-5.8.92-5.07-3-5.07-6.51-0.93-.05-1.85-0.12-2.78-0.19l-1.69-.1c-0.5,0-1,0-1.49,0q-89.46,0-178.91-.05c-1.92,0-4,.72-5.77-0.73-6.31,1.83-7,1.25-7.23-6.1-3.82,0-7.64-.1-11.45,0-2.49.08-3.78-.73-3.57-3.41,0.13-1.66-.09-3.34,0-5,0.25-3.18-.53-5.29-4.32-4.82-2.56.32-3.69-.82-3.48-3.43,0.13-1.66-.1-3.34,0-5,0.27-3.13-.31-5.28-4.2-4.77-2.93.38-3.79-1.29-3.63-3.93,0.11-1.83-.1-3.67,0-5.49,0.22-2.82-.52-4.51-3.8-4.23-1.4.12-3.55,0.38-3.42-1.78,0.23-3.9-1.49-5-5-4.6-2.13.22-2.92-1.13-2.87-3.13s-0.13-4,0-6c0.24-3-.43-4.93-4-4.46-2.64.35-3.58-1-3.41-3.51,0.12-1.82-.08-3.67,0-5.49,0.19-2.9-.83-4.54-4-4.15s-4.1-1.21-3.85-4.1c0.15-1.65-.1-3.34.05-5,0.26-2.9-.64-4.48-3.85-4.11-2.62.3-4.23-.64-4-3.59,0.21-2.35-.88-3.5-3.21-3.19-3.91.52-4.43-1.72-4.16-4.8,0.12-1.32-.09-2.67,0-4,0.3-3-.49-4.87-4-4.43-2.81.35-3.92-1.06-3.75-3.82,0.13-2.16-.06-4.33,0-6.49s-0.73-3.59-3.14-3.27c-3.77.49-4.59-1.49-4.28-4.71,0.15-1.48,0-3,0-4.49,0.14-2.58-.64-4.37-3.6-4-3.91.52-4.49-1.66-4.19-4.77,0.11-1.16-.1-2.34,0-3.49,0.4-3.42-.43-5.52-4.5-5-2.71.35-3.42-1.35-3.32-3.72,0.08-2-.09-4,0-6,0.18-2.66-.62-4.25-3.59-3.87-3.25.42-4.07-1.28-3.82-4.13,0.13-1.49-.07-3,0-4.49,0.23-3-.52-5-4-4.56-3.36.43-3.95-1.46-3.72-4.21,0.11-1.32-.1-2.68,0-4,0.36-3.36-.33-5.58-4.46-5-2.55.34-3-1.35-3-3.46,0.05-3.33,0-6.66-.05-10h0l0.17-.19-0.21.15a8.09,8.09,0,0,0-1.49,0c-4.95.78-7.15-1.14-6.21-6.22-0.68-.06-1.38-0.16-2.07-0.25-0.52-.07-1-0.13-1.52-0.16a5.18,5.18,0,0,0-2.46.32c-1.21.56-1.92,1.93-1.64,5,0.18,2-1.85,1.52-3.06,1.47-2.73-.12-5.1-0.08-4.43,3.8,0.37,2.13-.78,3.22-2.88,2.86-4.32-.73-5.12,1.53-4.72,5.13,0.18,1.65-.06,3.34.05,5,0.15,2.18-.34,3.7-2.93,3.23-4.3-.78-5.13,1.48-4.7,5.08,0.16,1.31-.11,2.68.05,4,0.37,3.12-.54,4.85-4,4.28-2.83-.46-3.92.76-3.65,3.61,0.19,2-.1,4,0.07,6,0.24,2.75-.68,4.18-3.6,3.71-3.49-.56-4.39,1.16-4.07,4.28,0.19,1.81-.12,3.68.07,5.49,0.3,2.87-.85,4.05-3.66,3.57-3.5-.61-4.33,1.14-4,4.23,0.19,1.81-.12,3.68.07,5.49,0.3,2.89-.89,4-3.69,3.62-3-.43-4.42.66-4,3.82,0.31,2.14-.7,3.2-2.84,2.83-4.21-.74-5.21,1.35-4.76,5,0.2,1.64-.05,3.33.05,5,0.14,2.2-.44,3.74-3,3.29-4.33-.76-5.12,1.5-4.69,5.09,0.16,1.31-.1,2.68.05,4,0.36,3.11-.56,4.84-4,4.28-2.91-.47-4,0.93-3.59,3.69,0.34,2.55-1,3.35-3.25,2.94-4.17-.76-4.72,1.51-4.38,4.83,0.17,1.65-.08,3.34.05,5,0.2,2.47-.55,3.94-3.3,3.52-3.59-.55-4.77,1-4.37,4.47,0.23,2-.06,4,0.06,6,0.13,2.15-.71,3.23-2.87,2.86-4.21-.73-5.22,1.35-4.76,5,0.18,1.48-.08,3,0.05,4.49,0.23,2.62-.43,4.29-3.49,3.82s-4.69.68-4.18,4.05c0.29,1.91-.71,2.92-2.58,2.59-5.07-.9-5.37,2.11-5,5.83,0.14,1.49-.09,3,0,4.49,0.24,2.48-.92,3.43-3.21,3-4.06-.74-4.85,1.33-4.45,4.77,0.19,1.64-.06,3.34.06,5,0.17,2.4-.41,4-3.23,3.57-4.12-.69-4.83,1.52-4.43,4.91,0.16,1.31-.12,2.68.05,4,0.45,3.39-.68,5-4.31,4.5-1.39-.19-3.52-0.41-3.21,1.88,0.74,5.47-2.81,4.75-6.18,4.75q-96.21,0-192.42,0c-1.17,0-2.34.07-3.5,0-2.2-.17-3.68.46-3.29,3,0.51,3.33-1.18,4.12-4,3.69s-3.88.82-3.61,3.62a32.42,32.42,0,0,1,.07,5h699.4C2677.11,336.17,2677.13,334.34,2677.13,332.51Z"/><path class="cls-13" d="M1977.64,333c-0.26-2.8.75-4.05,3.61-3.62s4.53-.36,4-3.69c-0.39-2.53,1.09-3.16,3.29-3,1.16,0.09,2.33,0,3.5,0q96.21,0,192.42,0c3.37,0,6.92.71,6.18-4.75-0.31-2.3,1.82-2.07,3.21-1.88,3.64,0.49,4.77-1.12,4.31-4.5-0.18-1.31.1-2.68-.05-4-0.41-3.39.3-5.59,4.43-4.91,2.82,0.47,3.4-1.18,3.23-3.57-0.12-1.66.14-3.35-.06-5-0.4-3.44.38-5.51,4.45-4.77,2.28,0.42,3.44-.53,3.21-3-0.14-1.49.09-3,0-4.49-0.34-3.73,0-6.73,5-5.83,1.87,0.33,2.87-.67,2.58-2.59-0.5-3.37,1-4.55,4.18-4.05s3.73-1.19,3.49-3.82c-0.13-1.49.13-3-.05-4.49-0.46-3.69.55-5.77,4.76-5,2.15,0.37,3-.71,2.87-2.86-0.12-2,.16-4-0.06-6-0.4-3.43.78-5,4.37-4.47,2.75,0.42,3.49-1.05,3.3-3.52-0.13-1.66.12-3.34-.05-5-0.35-3.32.21-5.6,4.38-4.83,2.2,0.4,3.59-.4,3.25-2.94-0.37-2.76.69-4.16,3.59-3.69,3.48,0.56,4.41-1.18,4-4.28-0.15-1.32.11-2.68-.05-4-0.43-3.59.36-5.85,4.69-5.09,2.54,0.45,3.12-1.1,3-3.29-0.11-1.66.15-3.35-.05-5-0.45-3.69.55-5.78,4.76-5,2.14,0.37,3.15-.68,2.84-2.83-0.46-3.16,1-4.25,4-3.82,2.8,0.4,4-.73,3.69-3.62-0.19-1.81.12-3.68-.07-5.49-0.32-3.09.5-4.83,4-4.23,2.81,0.49,4-.69,3.66-3.57-0.19-1.81.12-3.68-.07-5.49-0.32-3.13.58-4.85,4.07-4.28,2.92,0.47,3.84-1,3.6-3.71-0.17-2,.12-4-0.07-6-0.28-2.84.82-4.07,3.65-3.61,3.5,0.57,4.41-1.17,4-4.28-0.16-1.31.11-2.68-.05-4-0.43-3.6.4-5.86,4.7-5.08,2.59,0.47,3.09-1,2.93-3.23-0.12-1.66.13-3.35-.05-5-0.39-3.6.41-5.86,4.72-5.13,2.1,0.35,3.24-.74,2.88-2.86-0.67-3.88,1.7-3.92,4.43-3.8,1.21,0.05,3.24.49,3.06-1.47-0.28-3,.44-4.4,1.64-5a5.18,5.18,0,0,1,2.46-.32c0.49,0,1,.09,1.52.16,0.69,0.09,1.39.19,2.07,0.25,1.87-.22,3.28-0.39,4.34-0.41a4.4,4.4,0,0,1,1.84.27,1.75,1.75,0,0,1,.73.59,2.31,2.31,0,0,1,.25.45,5.08,5.08,0,0,1,.31,1.24,39.74,39.74,0,0,1,.23,4.12l0.21-.15-0.17.19c1.12,0,2.25.06,3.37,0.06l1.12,0c2.05-.12,3.25.58,3,2.81-0.41,3.09.94,4.31,4,3.9,2.83-.38,3.94.87,3.7,3.69-0.17,2,.12,4-0.06,6-0.26,2.84.88,4,3.68,3.62,3-.43,4.29.85,3.93,3.92-0.17,1.48.1,3-.05,4.49-0.34,3.33.26,5.65,4.42,5,2.74-.43,3.45,1.07,3.28,3.52-0.14,2,.1,4-0.06,6-0.21,2.7.64,4.23,3.59,3.77,3.51-.55,4.41,1.23,4.09,4.31-0.12,1.15.08,2.34,0,3.49-0.38,3.6,0,6.35,4.8,5.55,2.2-.37,2.93.88,2.81,3-0.1,1.82.14,3.68-.05,5.49-0.37,3.43.4,5.56,4.48,5,1.1-.16,3-0.16,2.91,1.11-0.47,4.82,1.83,6,6.06,5.58,1.56-.16,1.73,1.24,1.74,2.46,0,2.16.16,4.34,0,6.49-0.27,3.11.63,4.84,4.09,4.33,2.88-.43,3.88.92,3.63,3.69-0.17,1.82.09,3.67-.06,5.49-0.22,2.8.41,4.59,3.74,4.14,2.55-.34,4.31.36,3.91,3.44-0.36,2.8,1.18,3.58,3.57,3.22,3.48-.52,4.35,1.19,4,4.26-0.17,1.65.1,3.34-.06,5-0.27,2.87.55,4.55,3.79,4.08s4.18,1,3.88,4c-0.17,1.65.1,3.34-.06,5-0.28,3,.51,4.86,4,4.31,2.95-.46,3.82,1.07,3.58,3.77-0.15,1.65.11,3.34-.05,5-0.32,3.24.51,5.21,4.28,4.64,2.57-.39,3.74.75,3.4,3.37-0.36,2.8,1.2,3.55,3.59,3.21,3.47-.49,4.41,1.19,4.07,4.32-0.18,1.64.09,3.34-.06,5-0.26,2.84.46,4.62,3.76,4.09,3.14-.5,4.21.92,3.86,3.92-0.17,1.48.11,3-.06,4.49-0.39,3.42.41,5.56,4.48,4.93,2.34-.36,3.29.75,3.2,3.13s-0.06,5,0,7.49c0,0.81,0,1.63,0,2.44,0.6,0.06,1.2.2,1.8,0.22a3.3,3.3,0,0,0,.6,0c5-.74,6,1.75,4.8,6,1.76,1.45,3.85.73,5.77,0.73q89.46,0.07,178.91.05c0.5,0,1,0,1.49,0l1.69,0.1c0.93,0.06,1.85.14,2.78,0.19l9-.34c3.38-.13,6.9-0.67,6.22,4.76-0.29,2.28,1.87,2.06,3.25,1.88,3.77-.5,4.6,1.38,4.24,4.63a23.83,23.83,0,0,0-.07,4h7.7q0-5.54.13-11.07c0.09-3.06-.51-4.82-4.05-4.37-1.6.2-3.85,0.35-3.52-2.17,0.62-4.7-2.17-4.5-5.42-4.49q-96.5.07-193,0c-1.33,0-2.67-.06-4,0-2,.11-3.29-0.58-3-2.82,0.44-3.11-.85-4.35-3.91-3.87-3.34.52-4-1.32-3.72-4.12,0.16-1.82-.1-3.68.06-5.49,0.25-2.76-.7-4.19-3.62-3.7-3.45.57-4.39-1.09-4.07-4.22,0.19-1.81-.06-3.67.06-5.49,0.15-2.38-.41-4-3.23-3.6-4.17.66-4.77-1.66-4.41-5,0.14-1.32-.13-2.69.05-4,0.49-3.46-.79-5-4.35-4.4-2.71.44-3.58-.92-3.28-3.43,0.28-2.32-.71-3.57-3.12-3.18-4,.64-5-1.34-4.53-4.85,0.2-1.64-.08-3.34.06-5,0.2-2.45-.5-3.94-3.27-3.52-3.58.54-4.77-1.06-4.38-4.49,0.22-2,0-4,.06-6,0.11-2.18-.9-3.19-3-2.82-4.34.77-5.09-1.54-4.69-5.1,0.15-1.32-.1-2.68,0-4,0.36-3.15-.65-4.81-4.1-4.27-3,.47-3.84-1.14-3.52-3.8,0.25-2.14-.71-3.22-2.86-2.84-4.21.74-5.23-1.34-4.76-5,0.17-1.31-.08-2.67,0-4,0.29-3-.43-4.94-4-4.35-2.86.47-3.91-.88-3.65-3.68,0.17-1.82-.15-3.68.07-5.49,0.39-3.28-.86-4.64-4.15-4.17-2.52.36-3.81-.65-3.48-3.33s-1-3.68-3.49-3.3c-3.31.49-4.54-.91-4.16-4.18,0.21-1.81-.11-3.68.07-5.49,0.27-2.79-.73-4.11-3.62-3.69-3.44.5-4.36-1.23-4-4.33,0.19-1.81-.08-3.67.06-5.49,0.19-2.46-.5-4-3.26-3.48-4.19.75-4.72-1.58-4.38-4.89,0.15-1.48-.11-3,0.05-4.49,0.33-3-.8-4.43-3.91-4-3.28.5-4-1.22-3.78-4.08,0.16-1.82-.1-3.68.06-5.49,0.23-2.67-.52-4.24-3.52-3.78-3.37.51-4.5-1-4.13-4.23,0.17-1.48-.11-3,0.06-4.49,0.36-3.23-.42-5.23-4.23-4.61-2.51.41-3.83-.56-3.41-3.27,0.48-3.16-1.36-3.68-3.87-3.39-2.74.32-4.12-.7-3.73-3.62s-1.5-3.08-3.72-3.06c-7.67.06-15.33,0.11-23,0-2.61,0-4.24.45-3.82,3.5,0.4,2.88-1.31,3.46-3.63,3.18-3-.36-4.44.66-4,3.83,0.31,2.14-.65,3.21-2.82,2.84-4.17-.72-5.28,1.29-4.82,5,0.2,1.64-.06,3.33.05,5,0.15,2.24-.57,3.69-3,3.28-4.48-.75-4.92,1.8-4.6,5.23,0.15,1.65-.08,3.34,0,5,0.18,2.38-.83,3.51-3.18,3.13-4.06-.65-4.89,1.44-4.5,4.9,0.18,1.65-.08,3.34.06,5,0.21,2.49-.55,3.9-3.29,3.45-3.56-.58-4.81,1-4.35,4.42,0.2,1.47-.09,3,0.06,4.49,0.3,3-.4,5-3.95,4.41-3.38-.53-4,1.32-3.7,4.11,0.15,1.65-.13,3.35.06,5,0.36,3.16-.64,4.78-4.07,4.27-2.42-.36-3.94.44-3.57,3.22,0.41,3.12-1.36,3.77-3.9,3.4-3.35-.49-4,1.27-3.73,4.09,0.16,1.82-.1,3.67.06,5.49,0.23,2.7-.61,4.24-3.57,3.77-3.48-.56-4.44,1.13-4.12,4.27,0.15,1.48-.11,3,0.05,4.49,0.34,3.17-.3,5.25-4.17,4.59-2.51-.43-3.83.56-3.45,3.27,0.45,3.17-1.44,3.68-3.94,3.38-2.85-.34-3.94.86-3.69,3.69,0.18,2-.11,4,0.07,6,0.25,2.78-.72,4.13-3.61,3.64-3.51-.59-4.37,1.18-4.08,4.28,0.17,1.82-.08,3.67.06,5.49,0.19,2.46-.53,4-3.28,3.54-3.57-.54-4.79,1-4.37,4.46,0.22,1.81-.09,3.67.07,5.49,0.23,2.63-.85,3.78-3.44,3.4-3.27-.47-4.68.82-4.24,4.14,0.27,2-.85,2.82-2.67,2.49-4.52-.81-5.43,1.49-4.94,5.34,0.21,1.64,0,3.33,0,5,0.1,2-.59,3.38-2.81,3-4.76-.78-5.21,2-4.82,5.58,0.14,1.32-.08,2.67,0,4,0.25,2.62-.42,4.29-3.47,3.78-3.85-.65-4.53,1.45-4.2,4.64,0.15,1.48-.12,3,0.06,4.49,0.38,3.21-.76,4.65-4.14,4.25-1.57-.19-3.8-0.41-3.41,2.23,0.72,4.83-2.33,4.43-5.47,4.43q-77.75-.05-155.49,0-20.25,0-40.5,0c-2,0-4.29-.29-3.9,2.87s-1.12,4.22-4,3.81-3.69,1-3.62,3.75c0.1,3.88.14,7.77,0.12,11.65h7.68A32.42,32.42,0,0,0,1977.64,333Z"/><path class="cls-13" d="M2331.4,109.27c0.49,0,1,.09,1.52.16C2332.4,109.37,2331.89,109.3,2331.4,109.27Z"/><polygon class="cls-13" points="2342.72 115.98 2342.89 115.8 2342.71 115.98 2342.72 115.98"/><path class="cls-13" d="M2665.22,322.76l1.69,0.1Z"/><path class="cls-14" d="M2674.76,329.56c2.05-.32,2.37,1.3,2.37,3,0,1.83,0,3.66,0,5.49h15.17a23.83,23.83,0,0,1,.07-4c0.35-3.25-.47-5.12-4.24-4.63-1.38.18-3.53,0.39-3.25-1.88,0.69-5.43-2.84-4.89-6.22-4.76l-9,.34C2669.69,326.52,2669,330.47,2674.76,329.56Z"/><path class="cls-14" d="M2342.77,126c0,2.11.4,3.8,3,3.46,4.12-.56,4.82,1.66,4.46,5-0.14,1.32.07,2.67,0,4-0.23,2.75.36,4.64,3.72,4.21,3.52-.45,4.27,1.59,4,4.56-0.11,1.49.09,3,0,4.49-0.25,2.85.57,4.55,3.82,4.13,3-.38,3.77,1.21,3.59,3.87-0.13,2,0,4,0,6-0.1,2.38.62,4.07,3.32,3.72,4.07-.53,4.89,1.58,4.5,5-0.13,1.15.07,2.34,0,3.49-0.29,3.11.28,5.29,4.19,4.77,3-.39,3.74,1.4,3.6,4-0.08,1.5.11,3,0,4.49-0.32,3.22.51,5.2,4.28,4.71,2.41-.31,3.25,1,3.14,3.27s0.09,4.34,0,6.49c-0.17,2.76.94,4.17,3.75,3.82,3.54-.44,4.33,1.41,4,4.43-0.13,1.32.08,2.67,0,4-0.28,3.08.25,5.32,4.16,4.8,2.33-.31,3.42.84,3.21,3.19-0.26,2.95,1.35,3.89,4,3.59,3.21-.37,4.11,1.22,3.85,4.11-0.15,1.65.1,3.34-.05,5-0.26,2.89.63,4.5,3.85,4.1s4.16,1.24,4,4.15c-0.12,1.82.08,3.67,0,5.49-0.17,2.52.77,3.86,3.41,3.51,3.57-.47,4.24,1.47,4,4.46-0.16,2,0,4,0,6s0.74,3.36,2.87,3.13c3.54-.37,5.26.7,5,4.6-0.13,2.15,2,1.9,3.42,1.78,3.28-.28,4,1.4,3.8,4.23-0.14,1.82.06,3.67,0,5.49-0.15,2.64.71,4.31,3.63,3.93,3.89-.51,4.47,1.64,4.2,4.77-0.14,1.65.08,3.34,0,5-0.2,2.61.92,3.75,3.48,3.43,3.79-.47,4.56,1.64,4.32,4.82-0.13,1.66.09,3.34,0,5-0.2,2.68,1.08,3.48,3.57,3.41,3.81-.12,7.63,0,11.45,0v-0.06h0c0-.81,0-1.63,0-2.44,0-2.5-.06-5,0-7.49s-0.86-3.5-3.2-3.13c-4.07.63-4.87-1.5-4.48-4.93,0.17-1.48-.11-3,0.06-4.49,0.35-3-.72-4.42-3.86-3.92-3.3.53-4-1.25-3.76-4.09,0.15-1.65-.12-3.34.06-5,0.34-3.13-.6-4.81-4.07-4.32-2.38.33-3.95-.41-3.59-3.21,0.34-2.62-.83-3.76-3.4-3.37-3.77.57-4.6-1.39-4.28-4.64,0.17-1.65-.09-3.34.05-5,0.24-2.7-.63-4.22-3.58-3.77-3.52.55-4.31-1.27-4-4.31,0.15-1.65-.11-3.34.06-5,0.3-3-.74-4.47-3.88-4s-4.06-1.21-3.79-4.08c0.15-1.65-.11-3.34.06-5,0.31-3.07-.56-4.79-4-4.26-2.38.36-3.93-.42-3.57-3.22,0.4-3.08-1.36-3.78-3.91-3.44-3.33.45-4-1.35-3.74-4.14,0.15-1.82-.11-3.67.06-5.49,0.25-2.77-.75-4.12-3.63-3.69-3.46.52-4.36-1.22-4.09-4.33,0.19-2.15,0-4.32,0-6.49,0-1.23-.18-2.62-1.74-2.46-4.23.43-6.54-.76-6.06-5.58,0.13-1.27-1.81-1.27-2.91-1.11-4.08.61-4.85-1.52-4.48-5,0.2-1.81-.05-3.66.05-5.49,0.12-2.07-.61-3.32-2.81-3-4.76.8-5.18-2-4.8-5.55,0.12-1.15-.08-2.34,0-3.49,0.32-3.08-.59-4.86-4.09-4.31-2.95.46-3.8-1.07-3.59-3.77,0.15-2-.08-4,0.06-6,0.17-2.45-.54-4-3.28-3.52-4.16.65-4.76-1.67-4.42-5,0.15-1.48-.12-3,0.05-4.49,0.36-3.07-.88-4.35-3.93-3.92-2.8.4-3.94-.78-3.68-3.62,0.18-2-.1-4,0.06-6,0.24-2.82-.87-4.08-3.7-3.69-3,.41-4.37-0.81-4-3.9,0.3-2.23-.9-2.93-3-2.81l-1.12,0c-1.12,0-2.25,0-3.37-.05C2342.74,119.31,2342.82,122.65,2342.77,126Z"/><path class="cls-14" d="M2471.86,315.79h0Z"/><path class="cls-14" d="M2341.19,115.91a8.09,8.09,0,0,1,1.49,0,39.74,39.74,0,0,0-.23-4.12,5.08,5.08,0,0,0-.31-1.24,2.31,2.31,0,0,0-.25-0.45,1.75,1.75,0,0,0-.73-0.59,4.4,4.4,0,0,0-1.84-.27c-1.06,0-2.46.18-4.34,0.41C2334,114.77,2336.25,116.69,2341.19,115.91Z"/><path class="cls-14" d="M2339.32,109.28a4.4,4.4,0,0,1,1.84.27A4.4,4.4,0,0,0,2339.32,109.28Z"/><path class="cls-14" d="M2342.13,110.59a5.08,5.08,0,0,1,.31,1.24A5.08,5.08,0,0,0,2342.13,110.59Z"/><path class="cls-14" d="M2471.86,315.85h0c0.22,7.35.93,7.93,7.23,6.1,1.16-4.21.22-6.7-4.8-6a3.3,3.3,0,0,1-.6,0c-0.59,0-1.2-.16-1.8-0.22v0.05Z"/><path class="cls-14" d="M2471.86,315.85v-0.05h0v0.05h0Z"/><polygon class="cls-14" points="2471.86 315.85 2471.82 315.79 2471.82 315.79 2471.86 315.85 2471.86 315.85"/><path class="cls-14" d="M2471.82,315.79v0.06h0Z"/><path class="cls-14" d="M2471.86,315.79h0l0,0.06v-0.05Z"/></svg>